<svg width="60" height="61" viewBox="0 0 60 61" fill="none" xmlns="http://www.w3.org/2000/svg">
<path id="Vector" d="M0.990005 56.5L1.79001 58.3L29.79 46.7L34.59 47.3L36.39 52.7L33.99 54.9C33.59 55.3 33.3233 55.8 33.19 56.4C33.0567 57 33.1233 57.5667 33.39 58.1L34.39 60.5L50.59 54.1L49.59 51.9C49.4567 51.2333 49.1233 50.7333 48.59 50.4C48.0567 50.0667 47.5233 49.9 46.99 49.9H43.59L41.99 45.9L46.19 43.7C46.8567 43.3 47.3233 42.7667 47.59 42.1C47.8567 41.4333 47.8567 40.7667 47.59 40.1L42.19 25.1C41.9233 24.4333 41.4233 23.9333 40.69 23.6C39.9567 23.2667 39.19 23.2333 38.39 23.5L34.19 25.3L33.59 23.9L35.79 21.3C37.39 19.4333 38.3233 17.3 38.59 14.9L41.39 11.5C42.3233 10.4333 42.7233 9.2 42.59 7.8C42.4567 6.4 41.8567 5.23333 40.79 4.3L39.59 3.7C38.5233 3.16666 37.39 3.03333 36.19 3.3L35.99 2.5C35.7233 1.7 35.2233 1.13333 34.49 0.799999C33.7567 0.466667 32.99 0.433331 32.19 0.700001L11.79 8.1C10.99 8.36666 10.4233 8.86666 10.09 9.6C9.75667 10.3333 9.72334 11.0333 9.99001 11.7L10.39 13.1C9.19001 13.7667 8.32334 14.7333 7.79001 16C7.25667 17.2667 7.19001 18.5 7.59001 19.7C7.99001 20.7667 8.59001 21.6 9.39001 22.2C10.19 22.8 11.1233 23.1667 12.19 23.3L16.79 23.9C18.6567 25.2333 20.7233 26.0333 22.99 26.3L26.19 26.5L26.79 28.1C26.1233 28.5 25.6567 29.1 25.39 29.9L24.79 33.3L0.990005 42.9L1.79001 44.7L15.39 39.3L18.59 49.3L0.990005 56.5ZM47.59 52.5L47.79 53.1L35.39 57.9L35.19 57.3C35.0567 57.0333 35.1233 56.7 35.39 56.3L38.59 53.3L42.79 51.9H46.79C47.19 51.9 47.4567 52.1 47.59 52.5ZM41.59 50.1L37.99 51.3L36.79 47.5C37.3233 47.6333 37.8567 47.5667 38.39 47.3L39.99 46.5L41.59 50.1ZM38.99 25.1C39.1233 24.9667 39.3233 24.9333 39.59 25C39.8567 25.0667 40.0567 25.2333 40.19 25.5L40.99 27.5L36.19 29.1L36.79 30.9L41.59 29.3L42.79 32.5L38.19 34.1L38.79 35.9L43.39 34.3L44.59 37.5L39.99 38.9L40.59 40.7L45.19 39.3L45.79 40.5C45.79 40.7667 45.7567 41 45.69 41.2C45.6233 41.4 45.4567 41.5667 45.19 41.7L37.59 45.5C37.4567 45.5 37.2567 45.5 36.99 45.5L30.39 44.7L26.79 33.9L27.39 30.3C27.5233 30.0333 27.7233 29.8333 27.99 29.7L38.99 25.1ZM38.79 5.3C39.59 5.7 40.1567 6.3 40.49 7.1C40.8233 7.9 40.79 8.7 40.39 9.5L40.19 10.1L38.79 11.7C38.6567 10.9 38.4567 9.96667 38.19 8.9L36.99 5.1C37.5233 5.1 38.1233 5.16666 38.79 5.3ZM9.59001 19.3C9.32334 18.5 9.35667 17.7 9.69001 16.9C10.0233 16.1 10.5233 15.5 11.19 15.1L12.59 18.3C13.1233 19.6333 13.79 20.7667 14.59 21.7L12.59 21.5C11.9233 21.5 11.3233 21.3 10.79 20.9C10.2567 20.5 9.85667 19.9667 9.59001 19.3ZM23.39 24.5C21.39 24.2333 19.59 23.5 17.99 22.3C16.39 21.1 15.19 19.5667 14.39 17.7L11.99 11.3C11.8567 11.0333 11.8233 10.7667 11.89 10.5C11.9567 10.2333 12.1233 10.1 12.39 10.1L32.99 2.7C33.2567 2.56667 33.5233 2.56667 33.79 2.7C34.0567 2.83333 34.19 3.03333 34.19 3.3L36.39 9.7C36.9233 11.4333 37.0233 13.2333 36.69 15.1C36.3567 16.9667 35.59 18.5667 34.39 19.9L31.39 23.5L32.19 25.7L28.59 27.3L27.79 24.9L23.39 24.5ZM17.19 38.5L19.39 37.7L21.79 45.1L23.79 44.5L21.19 36.9L24.99 35.3L28.39 45.1L20.59 48.5L17.19 38.5ZM49.19 17.5V18.5H50.99V17.5C50.99 16.1667 51.49 15.0333 52.49 14.1C53.49 13.1667 54.6567 12.7 55.99 12.7V10.7C54.6567 10.7 53.49 10.2333 52.49 9.3C51.49 8.36666 50.99 7.23333 50.99 5.9V4.9H49.19V5.9C49.19 7.23333 48.7233 8.36666 47.79 9.3C46.8567 10.2333 45.6567 10.7 44.19 10.7V12.7C45.6567 12.7 46.8567 13.1667 47.79 14.1C48.7233 15.0333 49.19 16.1667 49.19 17.5ZM50.19 9.3C50.7233 10.3667 51.4567 11.1667 52.39 11.7C51.4567 12.2333 50.7233 13.0333 50.19 14.1C49.5233 13.0333 48.7233 12.2333 47.79 11.7C48.7233 11.1667 49.5233 10.3667 50.19 9.3ZM6.39001 36.9V37.9H8.19001V36.9C8.19001 35.5667 8.65667 34.4333 9.59001 33.5C10.5233 32.5667 11.7233 32.1 13.19 32.1V30.1C11.7233 30.1 10.5233 29.6333 9.59001 28.7C8.65667 27.7667 8.19001 26.6333 8.19001 25.3V24.3H6.39001V25.3C6.39001 26.6333 5.89001 27.7667 4.89001 28.7C3.89001 29.6333 2.72334 30.1 1.39001 30.1V32.1C2.72334 32.1 3.89001 32.5667 4.89001 33.5C5.89001 34.4333 6.39001 35.5667 6.39001 36.9ZM7.19001 28.7C7.85667 29.7667 8.65667 30.5667 9.59001 31.1C8.65667 31.7667 7.85667 32.5667 7.19001 33.5C6.65667 32.5667 5.92334 31.7667 4.99001 31.1C5.92334 30.5667 6.65667 29.7667 7.19001 28.7ZM54.99 25.3V24.3H52.99V25.3C52.99 26.6333 52.5233 27.7667 51.59 28.7C50.6567 29.6333 49.5233 30.1 48.19 30.1V32.1C49.5233 32.1 50.6567 32.5667 51.59 33.5C52.5233 34.4333 52.99 35.5667 52.99 36.9V37.9H54.99V36.9C54.99 35.5667 55.4567 34.4333 56.39 33.5C57.3233 32.5667 58.4567 32.1 59.79 32.1V30.1C58.4567 30.1 57.3233 29.6333 56.39 28.7C55.4567 27.7667 54.99 26.6333 54.99 25.3ZM53.99 33.5C53.4567 32.5667 52.6567 31.7667 51.59 31.1C52.6567 30.5667 53.4567 29.7667 53.99 28.7C54.5233 29.7667 55.3233 30.5667 56.39 31.1C55.3233 31.7667 54.5233 32.5667 53.99 33.5ZM29.99 17.9L31.39 19.1C32.99 17.5 33.79 15.5667 33.79 13.3C33.79 11.5667 33.4567 9.76667 32.79 7.9C32.1233 6.56667 31.6567 5.7 31.39 5.3L29.79 6.5C29.79 6.5 30.0233 6.93333 30.49 7.8C30.9567 8.66666 31.3233 9.56667 31.59 10.5C31.8567 11.8333 31.89 13.1333 31.69 14.4C31.49 15.6667 30.9233 16.8333 29.99 17.9Z" fill="#FD4766"/>
</svg>
