<svg width="58" height="59" viewBox="0 0 58 59" fill="none" xmlns="http://www.w3.org/2000/svg">
<path id="Vector" d="M52.4 31.9V13.5C54 13.2333 55.3333 12.5 56.4 11.3C57.4667 10.1 58 8.63333 58 6.9C58 5.16666 57.3667 3.66666 56.1 2.4C54.8333 1.13333 53.3 0.5 51.5 0.5C49.7 0.5 48.1667 1.13333 46.9 2.4C45.6333 3.66666 45 5.23333 45 7.1H-1.52588e-05V44.5H28.2C28.3333 47.0333 29.0667 49.4 30.4 51.6C31.7333 53.8 33.5333 55.5 35.8 56.7C38.0667 57.9 40.5333 58.5 43.2 58.5C45.8667 58.5 48.3333 57.8333 50.6 56.5C52.8667 55.1667 54.6667 53.3667 56 51.1C57.3333 48.8333 58 46.3 58 43.5C58 41.2333 57.5 39.0667 56.5 37C55.5 34.9333 54.1333 33.2333 52.4 31.9ZM51.6 2.3C52.8 2.3 53.8667 2.76667 54.8 3.7C55.7333 4.63333 56.2 5.73333 56.2 7C56.2 8.26667 55.7333 9.36666 54.8 10.3C53.8667 11.2333 52.7667 11.7 51.5 11.7C50.2333 11.7 49.1333 11.2333 48.2 10.3C47.2667 9.36666 46.8 8.26667 46.8 7C46.8 5.73333 47.2667 4.63333 48.2 3.7C49.1333 2.76667 50.2667 2.3 51.6 2.3ZM1.79998 8.9H45.2C45.4667 9.56667 45.8 10.2333 46.2 10.9L40.6 16.7C40.2 16.4333 39.7667 16.3 39.3 16.3C38.8333 16.3 38.4667 16.4333 38.2 16.7L36.2 14.7C36.4667 14.3 36.5333 13.9 36.4 13.5C36.5333 12.7 36.3 12.0333 35.7 11.5C35.1 10.9667 34.4333 10.7 33.7 10.7C32.9667 10.7 32.3 10.9667 31.7 11.5C31.1 12.0333 30.8 12.7 30.8 13.5C30.8 13.9 30.9333 14.3 31.2 14.7L26.4 19.5C26 19.2333 25.6 19.1 25.2 19.1C24.4 19.1 23.7333 19.4 23.2 20C22.6667 20.6 22.4 21.2667 22.4 22C22.4 22.7333 22.6667 23.4 23.2 24C23.7333 24.6 24.4 24.9 25.2 24.9C26 24.9 26.6667 24.6 27.2 24C27.7333 23.4 28 22.7667 28 22.1C28 21.5667 27.9333 21.1 27.8 20.7L32.4 16.1C32.8 16.2333 33.2333 16.3 33.7 16.3C34.1667 16.3 34.5333 16.2333 34.8 16.1L36.8 17.9C36.6667 18.3 36.6 18.7 36.6 19.1C36.6 19.9 36.8667 20.5667 37.4 21.1C37.9333 21.6333 38.5667 21.9 39.3 21.9C40.0333 21.9 40.7 21.6333 41.3 21.1C41.9 20.5667 42.2 19.9 42.2 19.1C42.2 18.7 42.0667 18.3 41.8 17.9L47.6 12.3C48.5333 12.9667 49.5333 13.3667 50.6 13.5V30.5C48.2 29.1667 45.6667 28.5 43 28.5C40.8667 28.5 38.8333 28.9667 36.9 29.9C34.9667 30.8333 33.2667 32.1 31.8 33.7V29.5H26.2V40.7H28.4L28.2 42.7H1.79998V8.9ZM39.4 18.3C39.6667 18.3 39.8667 18.3667 40 18.5C40.1333 18.6333 40.2 18.8333 40.2 19.1C40.2 19.3667 40.1333 19.6 40 19.8C39.8667 20 39.6667 20.1 39.4 20.1C39.1333 20.1 38.9 20 38.7 19.8C38.5 19.6 38.4 19.3667 38.4 19.1C38.4 18.8333 38.5 18.6333 38.7 18.5C38.9 18.3667 39.1333 18.3 39.4 18.3ZM32.8 13.5C32.8 13.2333 32.8667 13.0333 33 12.9C33.1333 12.7667 33.3333 12.7 33.6 12.7C33.8667 12.7 34.1 12.7667 34.3 12.9C34.5 13.0333 34.6 13.2333 34.6 13.5C34.6 13.7667 34.5 14 34.3 14.2C34.1 14.4 33.8667 14.5 33.6 14.5C33.3333 14.5 33.1333 14.4 33 14.2C32.8667 14 32.8 13.7667 32.8 13.5ZM26.2 21.9C26.2 22.1667 26.1 22.4 25.9 22.6C25.7 22.8 25.4667 22.9 25.2 22.9C24.9333 22.9 24.7333 22.8 24.6 22.6C24.4667 22.4 24.4 22.2 24.4 22C24.4 21.8 24.4667 21.6 24.6 21.4C24.7333 21.2 24.9333 21.1 25.2 21.1C25.4667 21.1 25.7 21.2 25.9 21.4C26.1 21.6 26.2 21.8333 26.2 22.1V21.9ZM43 51.1C41 51.1 39.2667 50.3667 37.8 48.9C36.3333 47.4333 35.6 45.6667 35.6 43.6C35.6 41.5333 36.3333 39.7667 37.8 38.3C39.2667 36.8333 41.0333 36.1 43.1 36.1C45.1667 36.1 46.9333 36.8333 48.4 38.3C49.8667 39.7667 50.6 41.5333 50.6 43.6C50.6 45.6667 49.8667 47.4333 48.4 48.9C46.9333 50.3667 45.1333 51.1 43 51.1ZM30 36.3C29.4667 37.1 29.0667 37.9667 28.8 38.9H28V31.3H30V36.3ZM42.2 30.5V34.3C39.8 34.4333 37.7667 35.4 36.1 37.2C34.4333 39 33.6 41.1 33.6 43.5C33.6 44.8333 33.9333 46.1667 34.6 47.5L31.2 49.3C30.4 47.4333 30 45.5 30 43.5C30 40.0333 31.1667 37.0667 33.5 34.6C35.8333 32.1333 38.7333 30.7667 42.2 30.5ZM43 56.7C40.8667 56.7 38.8333 56.1667 36.9 55.1C34.9667 54.0333 33.4 52.6333 32.2 50.9L35.4 49.1C36.3333 50.3 37.4667 51.2333 38.8 51.9C40.1333 52.5667 41.5667 52.9 43.1 52.9C44.6333 52.9 46.0667 52.5667 47.4 51.9C48.7333 51.2333 49.8 50.3 50.6 49.1L54 50.9C52.8 52.6333 51.2333 54.0333 49.3 55.1C47.3667 56.1667 45.2667 56.7 43 56.7ZM54.8 49.3L51.6 47.5C52.1333 46.1667 52.4 44.8333 52.4 43.5C52.4 41.1 51.6 39 50 37.2C48.4 35.4 46.4 34.4333 44 34.3V30.5C47.4667 30.7667 50.3667 32.1333 52.7 34.6C55.0333 37.0667 56.2 40.0333 56.2 43.5C56.2 45.5 55.7333 47.4333 54.8 49.3ZM43 37.9C41.5333 37.9 40.2333 38.4667 39.1 39.6C37.9667 40.7333 37.4 42.0667 37.4 43.6C37.4 45.1333 37.9667 46.4333 39.1 47.5C40.2333 48.5667 41.5667 49.1 43.1 49.1C44.6333 49.1 45.9333 48.5667 47 47.5C48.0667 46.4333 48.6 45.1333 48.6 43.6C48.6 42.0667 48.0667 40.7333 47 39.6C45.9333 38.4667 44.6 37.9 43 37.9ZM43 47.3C42.0667 47.3 41.2333 46.9333 40.5 46.2C39.7667 45.4667 39.4 44.6 39.4 43.6C39.4 42.6 39.7667 41.7333 40.5 41C41.2333 40.2667 42.1 39.9 43.1 39.9C44.1 39.9 44.9667 40.2667 45.7 41C46.4333 41.7333 46.8 42.6 46.8 43.6C46.8 44.6 46.4333 45.4667 45.7 46.2C44.9667 46.9333 44.0667 47.3 43 47.3ZM3.59998 10.7H5.59998V12.7H3.59998V10.7ZM7.39998 10.7H20.6V12.7H7.39998V10.7ZM3.59998 14.5H5.59998V16.3H3.59998V14.5ZM7.39998 14.5H20.6V16.3H7.39998V14.5ZM3.59998 18.3H5.59998V20.1H3.59998V18.3ZM7.39998 18.3H20.6V20.1H7.39998V18.3ZM3.59998 21.9H5.59998V23.9H3.59998V21.9ZM7.39998 21.9H20.6V23.9H7.39998V21.9ZM3.59998 40.7H9.39999V31.3H3.59998V40.7ZM5.59998 33.3H7.39998V38.9H5.59998V33.3ZM11.2 40.7H16.8V33.3H11.2V40.7ZM13 35.1H15V38.9H13V35.1ZM18.6 40.7H24.4V25.7H18.6V40.7ZM20.6 27.7H22.4V38.9H20.6V27.7Z" fill="#FD4766"/>
</svg>
