<svg width="61" height="61" viewBox="0 0 61 61" fill="none" xmlns="http://www.w3.org/2000/svg">
<path id="Vector" d="M54.79 42.9C56.5233 40.3667 57.7233 37.6 58.39 34.6C59.0567 31.6 59.19 28.5 58.79 25.3L57.79 16.9C57.5233 14.3667 55.3233 12.5 51.19 11.3C47.59 10.3667 43.19 10.0333 37.99 10.3C38.9233 6.7 38.8567 4.1 37.79 2.5C37.2567 1.83333 36.6233 1.3 35.89 0.899998C35.1567 0.5 34.3567 0.299999 33.49 0.299999C32.6233 0.299999 31.8233 0.5 31.09 0.899998C30.3567 1.3 29.7233 1.83333 29.19 2.5C27.99 4.23333 27.99 7.16666 29.19 11.3C23.59 12.2333 18.8233 13.7333 14.89 15.8C10.9567 17.8667 8.79001 20.0333 8.39001 22.3C8.25667 22.8333 8.19001 23.3667 8.19001 23.9L8.59001 25.9C7.25667 26.1667 6.05667 26.6333 4.99001 27.3C3.92334 27.9667 3.05667 28.8333 2.39001 29.9C0.923339 32.3 0.456672 34.9667 0.990006 37.9C1.12334 39.3667 1.59001 40.7333 2.39001 42C3.19001 43.2667 4.19001 44.3 5.39001 45.1C6.19001 45.6333 7.12334 46.0333 8.19001 46.3C7.25667 47.3667 6.79001 48.5 6.79001 49.7C6.79001 51.9667 8.12334 53.9667 10.79 55.7C13.3233 57.1667 16.6567 58.3333 20.79 59.2C24.9233 60.0667 29.2567 60.5 33.79 60.5C38.3233 60.5 42.6567 60.0667 46.79 59.2C50.9233 58.3333 54.2567 57.1667 56.79 55.7C59.4567 53.9667 60.79 51.9667 60.79 49.7C60.79 47.0333 58.79 44.7667 54.79 42.9ZM38.79 50.9L34.79 51.5C31.0567 52.0333 27.49 51.5 24.09 49.9C20.69 48.3 17.8233 45.9333 15.49 42.8C13.1567 39.6667 11.79 36.1 11.39 32.1L10.79 27.5C12.2567 28.5667 14.2567 29.3333 16.79 29.8C19.3233 30.2667 22.1233 30.5 25.19 30.5C28.2567 30.5 31.2567 30.3 34.19 29.9C38.4567 29.3667 42.39 28.4667 45.99 27.2C49.59 25.9333 52.39 24.5 54.39 22.9L54.59 22.7C55.2567 22.1667 55.8567 21.6333 56.39 21.1L56.99 25.7C57.39 29.7 56.8567 33.5333 55.39 37.2C53.9233 40.8667 51.7233 43.9333 48.79 46.4C45.8567 48.8667 42.5233 50.3667 38.79 50.9ZM9.39001 32.3C9.65667 35.2333 10.4567 37.9667 11.79 40.5C10.7233 40.5 9.69001 40.2333 8.69001 39.7C7.69001 39.1667 7.09001 38.3 6.89001 37.1C6.69001 35.9 6.79001 34.8333 7.19001 33.9C7.59001 32.9667 8.32334 32.4333 9.39001 32.3ZM55.79 17.1C55.9233 18.1667 55.19 19.3667 53.59 20.7C50.9233 20.4333 48.19 20.5 45.39 20.9C41.9233 21.3 39.4567 20.7667 37.99 19.3C36.9233 18.3667 36.39 17.1 36.39 15.5C36.5233 14.4333 36.79 13.4333 37.19 12.5C40.79 12.2333 43.99 12.3 46.79 12.7C49.59 13.1 51.7567 13.7 53.29 14.5C54.8233 15.3 55.6567 16.1667 55.79 17.1ZM30.79 3.7C31.4567 2.9 32.3233 2.56667 33.39 2.7C34.4567 2.56667 35.39 2.9 36.19 3.7C36.99 4.9 36.79 7.36666 35.59 11.1L35.39 11.7C34.8567 12.9 34.5233 14.1667 34.39 15.5C34.39 17.6333 35.1233 19.4333 36.59 20.9C38.59 22.7667 41.59 23.4333 45.59 22.9C47.3233 22.7667 49.0567 22.7 50.79 22.7C45.4567 25.3667 39.8567 27.0333 33.99 27.7C29.7233 28.3667 25.7233 28.5667 21.99 28.3C18.5233 28.0333 15.7233 27.4667 13.59 26.6C11.4567 25.7333 10.3233 24.7667 10.19 23.7V23.5C13.9233 22.5667 17.59 22.3667 21.19 22.9C25.19 23.4333 28.19 22.7667 30.19 20.9C31.79 19.4333 32.5233 17.6333 32.39 15.5C32.2567 14.1667 31.99 12.9 31.59 11.7L31.19 10.9C30.1233 7.3 29.99 4.9 30.79 3.7ZM29.99 13.3C30.2567 13.9667 30.39 14.7 30.39 15.5C30.39 17.1 29.9233 18.3667 28.99 19.3C27.39 20.7667 24.89 21.2667 21.49 20.8C18.09 20.3333 14.7233 20.4333 11.39 21.1C12.59 19.5 14.79 18.0333 17.99 16.7C21.4567 15.2333 25.4567 14.1 29.99 13.3ZM2.99001 37.5C2.59001 35.2333 2.95667 33.1667 4.09001 31.3C5.22334 29.4333 6.79001 28.3667 8.79001 28.1L8.99001 30.3C8.19001 30.3 7.49001 30.5333 6.89001 31C6.29001 31.4667 5.79001 32.1 5.39001 32.9C4.85667 34.3667 4.65667 35.8333 4.79001 37.3C5.19001 39.3 6.15667 40.7333 7.69001 41.6C9.22334 42.4667 10.8567 42.8333 12.59 42.7H12.79L14.19 44.5C13.79 44.6333 13.3233 44.7667 12.79 44.9C10.5233 45.1667 8.39001 44.5667 6.39001 43.1C5.45667 42.5667 4.69001 41.8 4.09001 40.8C3.49001 39.8 3.12334 38.7 2.99001 37.5ZM33.79 58.3C29.1233 58.3 24.79 57.9 20.79 57.1C17.0567 56.3 14.1233 55.2333 11.99 53.9C9.85667 52.5667 8.82334 51.2333 8.89001 49.9C8.95667 48.5667 9.45667 47.5667 10.39 46.9L11.79 47.1C13.1233 47.1 14.39 46.8333 15.59 46.3C18.1233 49.1 21.09 51.1333 24.49 52.4C27.89 53.6667 31.4567 54.0333 35.19 53.5L38.99 52.9C41.79 52.6333 44.4567 51.7667 46.99 50.3C49.5233 48.8333 51.6567 46.9667 53.39 44.7C55.1233 45.5 56.4567 46.3333 57.39 47.2C58.3233 48.0667 58.79 48.9 58.79 49.7C58.79 51.1667 57.7233 52.5667 55.59 53.9C53.4567 55.2333 50.5233 56.3 46.79 57.1C42.79 57.9 38.4567 58.3 33.79 58.3Z" fill="#FD4766"/>
</svg>
