<svg width="60" height="61" viewBox="0 0 60 61" fill="none" xmlns="http://www.w3.org/2000/svg">
<path id="Vector" d="M51 42.5H33.6L49.8 26.3C50.2 25.9 50.4 25.4 50.4 24.8C50.4 24.2 50.2 23.7667 49.8 23.5L38.6 12.1C38.2 11.7 37.7333 11.5 37.2 11.5C36.6667 11.5 36.2 11.7 35.8 12.1L20 27.9V17.3C20 16.6333 19.8667 15.9667 19.6 15.3L12.6 2.1C12.0667 1.03333 11.2 0.5 9.99998 0.5C8.79998 0.5 7.93332 1.03333 7.39998 2.1L0.399985 15.3C0.133318 15.9667 -1.52588e-05 16.6333 -1.52588e-05 17.3V51.5C-1.52588e-05 54.0333 0.866651 56.1667 2.59998 57.9C4.33332 59.6333 6.46665 60.5 8.99998 60.5H51C53.5333 60.5 55.6667 59.6333 57.4 57.9C59.1333 56.1667 60 54.0333 60 51.5C60 48.9667 59.1333 46.8333 57.4 45.1C55.6667 43.3667 53.5333 42.5 51 42.5ZM37.2 13.5L48.4 24.9L30.8 42.5H8.19998L11 39.7L11.6 40.3C11.7333 40.4333 11.9333 40.5 12.2 40.5C12.4667 40.5 12.7 40.4 12.9 40.2C13.1 40 13.2 39.7667 13.2 39.5C13.2 39.2333 13.1333 38.9667 13 38.7L12.4 38.3L13.8 36.9L15.2 38.3C15.4667 38.5667 15.8 38.6333 16.2 38.5C16.6 38.3667 16.8333 38.1333 16.9 37.8C16.9667 37.4667 16.8667 37.1667 16.6 36.9L15.2 35.5L16.6 34.1L19.4 36.9C19.6667 37.0333 19.9333 37.1 20.2 37.1C20.4667 37.1 20.7 37 20.9 36.8C21.1 36.6 21.2 36.3667 21.2 36.1C21.2 35.8333 21.0667 35.6333 20.8 35.5L18 32.5L19.4 31.1L20.8 32.5C21.0667 32.7667 21.3333 32.9 21.6 32.9C21.8667 32.9 22.1 32.8 22.3 32.6C22.5 32.4 22.6 32.1667 22.6 31.9C22.6 31.6333 22.4667 31.3667 22.2 31.1L20.8 29.7L22.4 28.3L25.2 31.1C25.3333 31.3667 25.5333 31.5 25.8 31.5C26.0667 31.5 26.3 31.4 26.5 31.2C26.7 31 26.8 30.7667 26.8 30.5C26.8 30.2333 26.7333 29.9667 26.6 29.7L23.8 26.9L25.2 25.5L26.6 26.9C26.8667 27.1667 27.1667 27.2667 27.5 27.2C27.8333 27.1333 28.0667 26.9 28.2 26.5C28.3333 26.1 28.2667 25.7667 28 25.5L26.6 24.1L28 22.7L30.8 25.5C31.0667 25.7667 31.4 25.8667 31.8 25.8C32.2 25.7333 32.4333 25.5 32.5 25.1C32.5667 24.7 32.4667 24.3667 32.2 24.1L29.4 21.3L30.8 19.9L32.2 21.3C32.3333 21.4333 32.5667 21.5 32.9 21.5C33.2333 21.5 33.4667 21.4 33.6 21.2C33.7333 21 33.8 20.7667 33.8 20.5C33.8 20.2333 33.7333 20.0333 33.6 19.9L32.2 18.5L33.6 17.1L36.4 19.9C36.6667 20.0333 36.9333 20.1 37.2 20.1C37.4667 20.1 37.7 20 37.9 19.8C38.1 19.6 38.2 19.3667 38.2 19.1C38.2 18.8333 38.0667 18.6333 37.8 18.5L35 15.7L37.2 13.5ZM5.99998 19.1L2.19998 16.3L5.79998 9.3C7.13332 10.1 8.53332 10.5 9.99998 10.5C11.4667 10.5 12.8667 10.1 14.2 9.3L17.8 16.3L14 19.1L11.4 16.5C11 16.1 10.5333 15.9 9.99998 15.9C9.46665 15.9 8.99998 16.1 8.59999 16.5L5.99998 19.1ZM15 32.9V20.9L18 18.5V29.9L15 32.9ZM9.19998 3.1C9.33332 2.7 9.59999 2.5 9.99998 2.5C10.4 2.5 10.6667 2.7 10.8 3.1L13.2 7.5C12.2667 8.16666 11.2 8.5 9.99998 8.5C8.79998 8.5 7.73332 8.16666 6.79998 7.5L9.19998 3.1ZM1.99998 18.5L4.59998 20.7L4.99998 20.9V32.5C4.99998 32.7667 5.09998 33 5.29998 33.2C5.49998 33.4 5.73332 33.5 5.99998 33.5C6.26665 33.5 6.49998 33.4 6.69999 33.2C6.89998 33 6.99998 32.7667 6.99998 32.5V20.9L9.99998 17.9L13 20.9V34.9L6.99998 40.9V36.5C6.99998 36.2333 6.89998 36 6.69999 35.8C6.49998 35.6 6.26665 35.5 5.99998 35.5C5.73332 35.5 5.49998 35.6 5.29998 35.8C5.09998 36 4.99998 36.2333 4.99998 36.5V42.9L3.19998 44.7C2.79998 45.1 2.39998 45.5 1.99998 45.9V18.5ZM51 58.5H8.99998C7.13332 58.5 5.49998 57.8 4.09998 56.4C2.69998 55 1.99998 53.3667 1.99998 51.5C1.99998 49.6333 2.69998 48 4.09998 46.6C5.49998 45.2 7.13332 44.5 8.99998 44.5H51C52.8667 44.5 54.5 45.2 55.9 46.6C57.3 48 58 49.6333 58 51.5C58 53.3667 57.3 55 55.9 56.4C54.5 57.8 52.8667 58.5 51 58.5ZM8.99998 46.5C7.66665 46.5 6.49998 47 5.49998 48C4.49998 49 3.99998 50.1667 3.99998 51.5C3.99998 52.8333 4.49998 54 5.49998 55C6.49998 56 7.66665 56.5 8.99998 56.5C10.3333 56.5 11.5 56 12.5 55C13.5 54 14 52.8333 14 51.5C14 50.1667 13.5 49 12.5 48C11.5 47 10.3333 46.5 8.99998 46.5ZM8.99998 54.5C8.19998 54.5 7.49998 54.2 6.89998 53.6C6.29998 53 5.99998 52.3 5.99998 51.5C5.99998 50.7 6.29998 50 6.89998 49.4C7.49998 48.8 8.19998 48.5 8.99998 48.5C9.79998 48.5 10.5 48.8 11.1 49.4C11.7 50 12 50.7 12 51.5C12 52.3 11.7 53 11.1 53.6C10.5 54.2 9.79998 54.5 8.99998 54.5ZM51 46.5C49.6667 46.5 48.5 47 47.5 48C46.5 49 46 50.1667 46 51.5C46 52.8333 46.5 54 47.5 55C48.5 56 49.6667 56.5 51 56.5C52.3333 56.5 53.5 56 54.5 55C55.5 54 56 52.8333 56 51.5C56 50.1667 55.5 49 54.5 48C53.5 47 52.3333 46.5 51 46.5ZM51 54.5C50.2 54.5 49.5 54.2 48.9 53.6C48.3 53 48 52.3 48 51.5C48 50.7 48.3 50 48.9 49.4C49.5 48.8 50.2 48.5 51 48.5C51.8 48.5 52.5 48.8 53.1 49.4C53.7 50 54 50.7 54 51.5C54 52.3 53.7 53 53.1 53.6C52.5 54.2 51.8 54.5 51 54.5Z" fill="#FD4766"/>
</svg>
