<svg width="60" height="61" viewBox="0 0 60 61" fill="none" xmlns="http://www.w3.org/2000/svg">
<path id="Vector" d="M59.4 44.1L53.4 41.1L49.4 30.9C49.2667 30.6333 49.0667 30.4333 48.8 30.3L24.6 20.7C24.2 20.5667 23.8667 20.6333 23.6 20.9L20.4 24.1C20.1333 24.3667 20.0667 24.7 20.2 25.1L29.8 49.3C29.9333 49.5667 30.1333 49.7667 30.4 49.9L40.6 53.9L43.6 59.9C43.7333 60.3 44 60.5 44.4 60.5C44.6667 60.5 44.9333 60.4333 45.2 60.3L59.8 45.7C59.9333 45.4333 60 45.1333 60 44.8C60 44.4667 59.8 44.2333 59.4 44.1ZM22.2 24.9L22.6 24.5L34.8 36.5C33.8667 37.7 33.5 39 33.7 40.4C33.9 41.8 34.5667 42.9667 35.7 43.9C36.8333 44.8333 38.1 45.2667 39.5 45.2C40.9 45.1333 42.1 44.6 43.1 43.6C44.1 42.6 44.6333 41.4 44.7 40C44.7667 38.6 44.3333 37.3333 43.4 36.2C42.4667 35.0667 41.3 34.4 39.9 34.2C38.5 34 37.2 34.3667 36 35.3L24 23.1L24.4 22.7L47.8 31.9L51.4 41.5L41 51.9L31.4 48.3L22.2 24.9ZM39.2 36.1C40.1333 36.1 40.9333 36.3667 41.6 36.9C42.2667 37.4333 42.6667 38.1333 42.8 39C42.9333 39.8667 42.8 40.7 42.4 41.5C42 42.3 41.4 42.8333 40.6 43.1C39.8 43.3667 39 43.4 38.2 43.2C37.4 43 36.7333 42.5333 36.2 41.8C35.6667 41.0667 35.4667 40.2667 35.6 39.4C35.7333 38.5333 36.1333 37.7667 36.8 37.1C37.4667 36.4333 38.2667 36.1 39.2 36.1ZM44.8 57.9L42.4 53.3L52.8 42.9L57.4 45.3L44.8 57.9ZM18 50.7C17.7333 50.4333 17.4667 50.3 17.2 50.3C16.9333 50.3 16.7333 50.4333 16.6 50.7L15.4 51.9C12.2 47.5 10.5333 42.5333 10.4 37C10.2667 31.4667 11.8 26.4333 15 21.9C15.9333 22.4333 16.9333 22.6333 18 22.5C19.0667 22.3667 19.9667 21.9333 20.7 21.2C21.4333 20.4667 21.8667 19.5667 22 18.5C22.1333 17.4333 21.9333 16.4333 21.4 15.5C25.9333 12.3 30.9667 10.7667 36.5 10.9C42.0333 11.0333 47 12.7 51.4 15.9L50.2 17.1C49.9333 17.2333 49.8 17.4333 49.8 17.7C49.8 17.9667 49.9333 18.2333 50.2 18.5L54.2 22.5C54.4667 22.7667 54.7333 22.9 55 22.9C55.2667 22.9 55.4667 22.7667 55.6 22.5L59.8 18.5C59.9333 18.2333 60 17.9667 60 17.7C60 17.4333 59.9333 17.2333 59.8 17.1L55.6 12.9C55.4667 12.7667 55.2667 12.7 55 12.7C54.7333 12.7 54.4667 12.7667 54.2 12.9L52.8 14.5C48.8 11.5667 44.3 9.8 39.3 9.2C34.3 8.6 29.5333 9.3 25 11.3L30.4 5.9C31.0667 6.3 31.7333 6.4 32.4 6.2C33.0667 6 33.6 5.6 34 5C34.4 4.4 34.5667 3.76667 34.5 3.1C34.4333 2.43333 34.1667 1.83333 33.7 1.3C33.2333 0.766666 32.6333 0.5 31.9 0.5C31.1667 0.5 30.5333 0.700001 30 1.1C29.4667 1.5 29.1 2.03333 28.9 2.7C28.7 3.36666 28.7333 4.03333 29 4.7L20 13.7C19.0667 13.1667 18 12.9333 16.8 13C15.6 13.0667 14.6 13.5 13.8 14.3C13 15.1 12.5667 16.1 12.5 17.3C12.4333 18.5 12.6667 19.5667 13.2 20.5L4.2 29.5C3.53333 29.2333 2.86667 29.2 2.2 29.4C1.53333 29.6 1 29.9667 0.6 30.5C0.2 31.0333 0 31.6667 0 32.4C0 33.1333 0.266667 33.7333 0.8 34.2C1.33333 34.6667 1.93333 34.9333 2.6 35C3.26667 35.0667 3.9 34.9 4.5 34.5C5.1 34.1 5.5 33.5667 5.7 32.9C5.9 32.2333 5.8 31.5667 5.4 30.9L10.8 25.5C8.8 30.0333 8.1 34.8 8.7 39.8C9.3 44.8 11.0667 49.3 14 53.3L12.4 54.7C12.2667 54.9667 12.2 55.2333 12.2 55.5C12.2 55.7667 12.2667 55.9667 12.4 56.1L16.6 60.3C16.7333 60.4333 16.9333 60.5 17.2 60.5C17.4667 60.5 17.7333 60.4333 18 60.3L22 56.1C22.2667 55.9667 22.4 55.7667 22.4 55.5C22.4 55.2333 22.2667 54.9667 22 54.7L18 50.7ZM55 14.9L57.8 17.7L55 20.5L52.2 17.7L55 14.9ZM31 2.7C31.2667 2.3 31.6 2.2 32 2.4C32.4 2.6 32.6 2.93333 32.6 3.4C32.6 3.86666 32.4 4.16666 32 4.3C31.6 4.43333 31.2667 4.36666 31 4.1C30.7333 3.83333 30.6 3.56667 30.6 3.3C30.6 3.03333 30.7333 2.83333 31 2.7ZM15.2 15.7C15.7333 15.1667 16.4 14.9 17.2 14.9C18 14.9 18.6667 15.1333 19.2 15.6C19.7333 16.0667 20.0667 16.6 20.2 17.2C20.3333 17.8 20.2667 18.3667 20 18.9C19.7333 19.4333 19.3667 19.8667 18.9 20.2C18.4333 20.5333 17.9 20.7 17.3 20.7C16.7 20.7 16.1333 20.5333 15.6 20.2C15.0667 19.8667 14.7 19.4333 14.5 18.9C14.3 18.3667 14.2667 17.8 14.4 17.2C14.5333 16.6 14.8 16.1 15.2 15.7ZM3.6 32.9C3.33333 33.0333 3.1 33.1 2.9 33.1C2.7 33.1 2.5 33 2.3 32.8C2.1 32.6 2 32.3667 2 32.1C2 31.8333 2.06667 31.6 2.2 31.4C2.33333 31.2 2.53333 31.1 2.8 31.1C3.06667 31.1 3.3 31.2 3.5 31.4C3.7 31.6 3.8 31.8333 3.8 32.1C3.8 32.3667 3.73333 32.6333 3.6 32.9ZM17.2 58.3L14.4 55.5L17.2 52.7L20 55.5L17.2 58.3Z" fill="#FD4766"/>
</svg>
