<svg width="58" height="59" viewBox="0 0 58 59" fill="none" xmlns="http://www.w3.org/2000/svg">
<path id="Vector" d="M29.8 48.3L34.2 52.1C34.8667 52.6333 35.6333 52.9 36.5 52.9C37.3667 52.9 38.1333 52.6333 38.8 52.1L43.2 48.3C44.4 47.3667 45 46.2 45 44.8C45 43.4 44.5333 42.2333 43.6 41.3C42.6667 40.3667 41.5333 39.9 40.2 39.9H40C38.6667 39.9 37.5333 40.3667 36.6 41.3H36.4C35.4667 40.3667 34.3333 39.9 33 39.9H32.8C31.4667 39.9 30.3333 40.3667 29.4 41.3C28.4667 42.2333 28 43.4 28 44.8C28 46.2 28.6 47.3667 29.8 48.3ZM32.8 41.7H33C33.8 41.7 34.4667 41.9667 35 42.5L36.6 43.9L38 42.5C38.5333 41.9667 39.2 41.7 40 41.7H40.2C41 41.7 41.6667 41.9667 42.2 42.5C42.7333 43.0333 43 43.7333 43 44.6C43 45.4667 42.6667 46.2333 42 46.9L37.6 50.7C37.3333 50.9667 36.9667 51.1 36.5 51.1C36.0333 51.1 35.6667 50.9667 35.4 50.7L31 46.9C30.3333 46.2333 30 45.4667 30 44.6C30 43.7333 30.2667 43.0333 30.8 42.5C31.3333 41.9667 32 41.7 32.8 41.7ZM51.8 32.3C50.7333 32.3 49.6667 32.5667 48.6 33.1V30.5H46.8V26.1L48.6 28.1V29.5H50.6V27.3L49 25.7L50.6 24.3V18.3C50.6 17.5 50.3333 16.8333 49.8 16.3C49.2667 15.7667 48.6 15.5 47.8 15.5H46.8V14.5C46.8 13.7 46.5333 13.0333 46 12.5C45.4667 11.9667 44.8 11.7 44 11.7H43V3.3C43 2.5 42.7333 1.83333 42.2 1.3C41.6667 0.766666 41 0.5 40.2 0.5H11C10.2 0.5 9.53333 0.766666 9 1.3L0.8 9.5C0.266667 10.0333 0 10.7 0 11.5V51.9C0 52.7 0.266667 53.4 0.8 54C1.33333 54.6 2 54.9 2.8 54.9H24.4C24.6667 55.9667 25.2333 56.8333 26.1 57.5C26.9667 58.1667 27.9333 58.5 29 58.5H44C45.3333 58.5 46.4333 58.0667 47.3 57.2C48.1667 56.3333 48.6 55.2333 48.6 53.9C51.4 52.9667 53.6667 51.2667 55.4 48.8C57.1333 46.3333 58 43.6333 58 40.7V38.5C58 36.7667 57.4 35.3 56.2 34.1C55 32.9 53.5333 32.3 51.8 32.3ZM46.8 17.3H47.8C48.0667 17.3 48.2667 17.4 48.4 17.6C48.5333 17.8 48.6 18.0333 48.6 18.3V23.5L46.8 25.3V17.3ZM44 13.5C44.2667 13.5 44.5 13.6 44.7 13.8C44.9 14 45 14.2333 45 14.5V19.1H39.4V14.5C39.4 14.2333 39.4667 14 39.6 13.8C39.7333 13.6 39.9333 13.5 40.2 13.5H44ZM45 21.1V30.5H39.4V21.1H45ZM9.4 3.7V8.9C9.4 9.16666 9.3 9.4 9.1 9.6C8.9 9.8 8.66667 9.9 8.4 9.9H3.2L9.4 3.7ZM24.4 30.5V52.9H2.8C2.53333 52.9 2.3 52.8 2.1 52.6C1.9 52.4 1.8 52.2333 1.8 52.1V11.7H8.4C9.2 11.7 9.86667 11.4333 10.4 10.9C10.9333 10.3667 11.2 9.7 11.2 8.9V2.3H40.2C40.4667 2.3 40.7 2.4 40.9 2.6C41.1 2.8 41.2 3.03333 41.2 3.3V11.7H40.2C39.4 11.7 38.7333 11.9667 38.2 12.5C37.6667 13.0333 37.4 13.7 37.4 14.5V30.5H35.6V18.1L33 13.1C32.6 12.1667 31.9 11.7 30.9 11.7C29.9 11.7 29.1333 12.1667 28.6 13.1L26.2 18.1V30.5H24.4ZM28.6 17.3L30.4 13.9C30.5333 13.6333 30.7 13.5 30.9 13.5C31.1 13.5 31.2667 13.6333 31.4 13.9L33.2 17.3H28.6ZM30 19.1V30.5H28V19.1H30ZM31.8 19.1H33.6V30.5H31.8V19.1ZM46.8 53.9C46.8 54.7 46.5333 55.3667 46 55.9C45.4667 56.4333 44.8 56.7 44 56.7H29C28.2 56.7 27.5333 56.4333 27 55.9C26.4667 55.3667 26.2 54.7 26.2 53.9V36.1H46.8V53.9ZM46.8 34.1H26.2V32.3H46.8V34.1ZM48.6 40.9L51.4 38.1C51.5333 37.9667 51.6667 37.9 51.8 37.9C51.9333 37.9 52.0667 37.9667 52.2 38.1C52.3333 38.2333 52.4 38.3667 52.4 38.5V40.7C52.4 42.1667 52.0667 43.5 51.4 44.7C50.7333 45.9 49.8 46.9 48.6 47.7V40.9ZM56.2 40.7C56.2 43.2333 55.5 45.5 54.1 47.5C52.7 49.5 50.8667 50.9667 48.6 51.9V49.9C50.3333 49.1 51.7333 47.8667 52.8 46.2C53.8667 44.5333 54.4 42.7 54.4 40.7V38.5C54.4 37.8333 54.1333 37.2667 53.6 36.8C53.0667 36.3333 52.4667 36.1 51.8 36.1C51.1333 36.1 50.5333 36.3 50 36.7L48.6 38.1L48.8 35.5C49.6 34.5667 50.6 34.1 51.8 34.1C53 34.1 54.0333 34.5333 54.9 35.4C55.7667 36.2667 56.2 37.3 56.2 38.5V40.7ZM3.6 51.1H9.4V45.5H3.6V51.1ZM5.6 47.3H7.4V49.1H5.6V47.3ZM11.2 45.5H22.4V47.3H11.2V45.5ZM20.6 49.1H22.4V51.1H20.6V49.1ZM11.2 49.1H18.6V51.1H11.2V49.1Z" fill="#FD4766"/>
</svg>
