<svg width="59" height="59" viewBox="0 0 59 59" fill="none" xmlns="http://www.w3.org/2000/svg">
<path id="Vector" d="M58.79 29.5C58.79 35.3667 57.1567 40.7333 53.89 45.6C50.6233 50.4667 46.29 54.0333 40.89 56.3C35.49 58.5667 29.89 59.1333 24.09 58C18.29 56.8667 13.3233 54.2333 9.19001 50.1C5.99001 46.7667 3.65667 42.9667 2.19001 38.7C0.723339 34.4333 0.323339 30.0333 0.990005 25.5C1.65667 20.9667 3.25667 16.8333 5.79001 13.1C6.05667 12.7 6.35667 12.5333 6.69001 12.6C7.02334 12.6666 7.29001 12.8666 7.49001 13.2C7.69001 13.5333 7.65667 13.8333 7.39001 14.1C4.72334 17.9667 3.15667 22.1333 2.69001 26.6C2.22334 31.0667 2.82334 35.4 4.49001 39.6C6.15667 43.8 8.79001 47.4 12.39 50.4C15.99 53.4 19.99 55.3333 24.39 56.2C28.79 57.0667 33.19 56.8667 37.59 55.6C41.99 54.3333 45.79 52.0667 48.99 48.8C52.19 45.5333 54.4567 41.7333 55.79 37.4C57.1233 33.0667 57.3567 28.6667 56.49 24.2C55.6233 19.7333 53.7233 15.7333 50.79 12.2C47.8567 8.66665 44.29 6.06665 40.09 4.39998C35.89 2.73331 31.5567 2.09998 27.09 2.49998C22.6233 2.89998 18.4567 4.36665 14.59 6.89998L16.19 8.69999L9.79001 9.89998L11.99 3.69998L13.39 5.49998C17.9233 2.43332 22.8567 0.766647 28.19 0.499981C33.5233 0.233315 38.59 1.33331 43.39 3.79998C48.19 6.26665 51.9567 9.83332 54.69 14.5C57.4233 19.1667 58.79 24.1667 58.79 29.5ZM29.79 52.9C34.0567 52.9 37.99 51.8667 41.59 49.8C45.19 47.7333 48.0233 44.9 50.09 41.3C52.1567 37.7 53.19 33.7667 53.19 29.5C53.19 25.2333 52.1567 21.3 50.09 17.7C48.0233 14.1 45.19 11.2667 41.59 9.19999C37.99 7.13332 34.0567 6.09998 29.79 6.09998C25.5233 6.09998 21.59 7.13332 17.99 9.19999C14.39 11.2667 11.5567 14.1 9.49001 17.7C7.42334 21.3 6.39001 25.2333 6.39001 29.5C6.39001 33.7667 7.42334 37.7 9.49001 41.3C11.5567 44.9 14.39 47.7333 17.99 49.8C21.59 51.8667 25.5233 52.9 29.79 52.9ZM29.79 7.89998C33.6567 7.89998 37.2567 8.86665 40.59 10.8C43.9233 12.7333 46.5567 15.3666 48.49 18.7C50.4233 22.0333 51.39 25.6333 51.39 29.5C51.39 33.3667 50.4233 36.9667 48.49 40.3C46.5567 43.6333 43.9233 46.2667 40.59 48.2C37.2567 50.1333 33.6567 51.1 29.79 51.1C25.9233 51.1 22.3233 50.1333 18.99 48.2C15.6567 46.2667 13.0233 43.6333 11.09 40.3C9.15667 36.9667 8.19001 33.3667 8.19001 29.5C8.19001 25.6333 9.15667 22.0333 11.09 18.7C13.0233 15.3666 15.6567 12.7333 18.99 10.8C22.3233 8.86665 25.9233 7.89998 29.79 7.89998ZM29.79 11.7C30.0567 11.7 30.29 11.6 30.49 11.4C30.69 11.2 30.79 10.9667 30.79 10.7V9.89998C30.79 9.63332 30.69 9.39998 30.49 9.19999C30.29 8.99998 30.0567 8.89998 29.79 8.89998C29.5233 8.89998 29.29 8.99998 29.09 9.19999C28.89 9.39998 28.79 9.63332 28.79 9.89998V10.7C28.79 10.9667 28.89 11.2 29.09 11.4C29.29 11.6 29.5233 11.7 29.79 11.7ZM29.79 47.3C29.5233 47.3 29.29 47.4 29.09 47.6C28.89 47.8 28.79 48.0333 28.79 48.3V49.1C28.79 49.3667 28.89 49.6 29.09 49.8C29.29 50 29.5233 50.1 29.79 50.1C30.0567 50.1 30.29 50 30.49 49.8C30.69 49.6 30.79 49.3667 30.79 49.1V48.3C30.79 48.0333 30.69 47.8 30.49 47.6C30.29 47.4 30.0567 47.3 29.79 47.3ZM48.59 30.5H49.39C49.6567 30.5 49.89 30.4 50.09 30.2C50.29 30 50.39 29.7667 50.39 29.5C50.39 29.2333 50.29 29 50.09 28.8C49.89 28.6 49.6567 28.5 49.39 28.5H48.59C48.3233 28.5 48.09 28.6 47.89 28.8C47.69 29 47.59 29.2333 47.59 29.5C47.59 29.7667 47.69 30 47.89 30.2C48.09 30.4 48.3233 30.5 48.59 30.5ZM10.19 30.5H10.99C11.2567 30.5 11.49 30.4 11.69 30.2C11.89 30 11.99 29.7667 11.99 29.5C11.99 29.2333 11.89 29 11.69 28.8C11.49 28.6 11.2567 28.5 10.99 28.5H10.19C9.92334 28.5 9.69001 28.6 9.49001 28.8C9.29001 29 9.19001 29.2333 9.19001 29.5C9.19001 29.7667 9.29001 30 9.49001 30.2C9.69001 30.4 9.92334 30.5 10.19 30.5ZM42.99 17.1C43.2567 17.1 43.5233 17.0333 43.79 16.9L44.39 16.3C44.6567 16.0333 44.7233 15.7333 44.59 15.4C44.4567 15.0667 44.2233 14.8333 43.89 14.7C43.5567 14.5667 43.2567 14.6333 42.99 14.9L42.39 15.5C42.1233 15.9 42.0567 16.2667 42.19 16.6C42.3233 16.9333 42.59 17.1 42.99 17.1ZM15.79 44.3C16.0567 44.3 16.3233 44.2333 16.59 44.1L17.19 43.5C17.4567 43.2333 17.5567 42.9 17.49 42.5C17.4233 42.1 17.19 41.8666 16.79 41.8C16.39 41.7333 16.0567 41.8333 15.79 42.1L15.19 42.7C14.9233 43.1 14.8567 43.4667 14.99 43.8C15.1233 44.1333 15.39 44.3 15.79 44.3ZM43.79 42.1C43.5233 41.8333 43.19 41.7333 42.79 41.8C42.39 41.8666 42.1567 42.1 42.09 42.5C42.0233 42.9 42.1233 43.2333 42.39 43.5L42.99 44.1C43.2567 44.2333 43.5233 44.3 43.79 44.3C44.0567 44.3 44.2567 44.2333 44.39 44.1C44.5233 43.9667 44.59 43.7666 44.59 43.5C44.59 43.2333 44.5233 42.9667 44.39 42.7L43.79 42.1ZM15.79 16.9C16.0567 17.1667 16.39 17.2667 16.79 17.2C17.19 17.1333 17.4233 16.9 17.49 16.5C17.5567 16.1 17.4567 15.7667 17.19 15.5L16.59 14.9C16.3233 14.6333 16.0233 14.5667 15.69 14.7C15.3567 14.8333 15.1233 15.0667 14.99 15.4C14.8567 15.7333 14.9233 16.0333 15.19 16.3L15.79 16.9ZM15.99 32.5L23.99 40.5C24.1233 40.7666 24.3233 40.9 24.59 40.9C24.8567 40.9 25.1233 40.7666 25.39 40.5L43.59 22.3C43.8567 22.0333 43.99 21.7667 43.99 21.5C43.99 21.2333 43.8567 21.0333 43.59 20.9L41.59 18.9C41.4567 18.7667 41.2567 18.7 40.99 18.7C40.7233 18.7 40.5233 18.7667 40.39 18.9L24.59 34.7L19.19 29.3C19.0567 29.0333 18.8567 28.9 18.59 28.9C18.3233 28.9 18.1233 29.0333 17.99 29.3L15.99 31.3C15.7233 31.4333 15.59 31.6333 15.59 31.9C15.59 32.1667 15.7233 32.3667 15.99 32.5ZM18.59 31.3L23.99 36.7C24.1233 36.8333 24.3233 36.9 24.59 36.9C24.8567 36.9 25.1233 36.8333 25.39 36.7L40.99 20.9L41.59 21.5L24.59 38.7L17.99 31.9L18.59 31.3Z" fill="#FD4766"/>
</svg>
