<svg width="60" height="59" viewBox="0 0 60 59" fill="none" xmlns="http://www.w3.org/2000/svg">
<path id="Vector" d="M11 5.89997C9.93332 5.89997 8.99998 6.29998 8.19998 7.09998C7.39998 7.89997 6.99998 8.83331 6.99998 9.89997C6.99998 10.9666 7.39998 11.9 8.19998 12.7C8.99998 13.5 9.93332 13.9 11 13.9C12.0667 13.9 13 13.5 13.8 12.7C14.6 11.9 15 10.9666 15 9.89997C15 8.83331 14.6 7.89997 13.8 7.09998C13 6.29998 12.0667 5.89997 11 5.89997ZM11 11.5C10.6 11.5 10.2333 11.3666 9.89999 11.1C9.56665 10.8333 9.39999 10.4666 9.39999 9.99997C9.39999 9.53331 9.56665 9.13331 9.89999 8.79998C10.2333 8.46664 10.6 8.29998 11 8.29998C11.4 8.29998 11.7667 8.46664 12.1 8.79998C12.4333 9.13331 12.6 9.53331 12.6 9.99997C12.6 10.4666 12.4333 10.8333 12.1 11.1C11.7667 11.3666 11.4 11.5 11 11.5ZM45.6 5.89997H35.2C34.1333 5.89997 33.2 6.29998 32.4 7.09998C31.6 7.89997 31.2 8.83331 31.2 9.89997C31.2 10.9666 31.6 11.9 32.4 12.7C33.2 13.5 34.1333 13.9 35.2 13.9H45.6C46.6667 13.9 47.6 13.5 48.4 12.7C49.2 11.9 49.6 10.9666 49.6 9.89997C49.6 8.83331 49.2 7.89997 48.4 7.09998C47.6 6.29998 46.6667 5.89997 45.6 5.89997ZM45.6 11.5H35.2C34.6667 11.5 34.2667 11.3666 34 11.1C33.7333 10.8333 33.6 10.4666 33.6 9.99997C33.6 9.53331 33.7333 9.13331 34 8.79998C34.2667 8.46664 34.6667 8.29998 35.2 8.29998H45.6C46 8.29998 46.3667 8.46664 46.7 8.79998C47.0333 9.13331 47.2 9.53331 47.2 9.99997C47.2 10.4666 47.0333 10.8333 46.7 11.1C46.3667 11.3666 46 11.5 45.6 11.5ZM21.2 5.89997C20.1333 5.89997 19.2 6.29998 18.4 7.09998C17.6 7.89997 17.2 8.83331 17.2 9.89997C17.2 10.9666 17.6 11.9 18.4 12.7C19.2 13.5 20.1333 13.9 21.2 13.9C22.2667 13.9 23.2 13.5 24 12.7C24.8 11.9 25.2 10.9666 25.2 9.89997C25.2 8.83331 24.8 7.89997 24 7.09998C23.2 6.29998 22.2667 5.89997 21.2 5.89997ZM21.2 11.5C20.8 11.5 20.4333 11.3666 20.1 11.1C19.7667 10.8333 19.6 10.4666 19.6 9.99997C19.6 9.53331 19.7667 9.13331 20.1 8.79998C20.4333 8.46664 20.8333 8.29998 21.3 8.29998C21.7667 8.29998 22.1333 8.46664 22.4 8.79998C22.6667 9.13331 22.8 9.53331 22.8 9.99997C22.8 10.4666 22.6667 10.8333 22.4 11.1C22.1333 11.3666 21.7333 11.5 21.2 11.5ZM19.4 25.5C19 25.5 18.6667 25.5666 18.4 25.7C18.1333 25.8333 17.9333 26.1 17.8 26.5L15.6 36.3C15.4667 36.5666 15.5 36.8333 15.7 37.1C15.9 37.3666 16.1333 37.5666 16.4 37.7H16.6C17.2667 37.7 17.6667 37.4333 17.8 36.9L20.2 26.9C20.3333 26.6333 20.3 26.3666 20.1 26.1C19.9 25.8333 19.6667 25.6333 19.4 25.5ZM23.6 36.5C23.8667 36.7666 24.1667 36.9 24.5 36.9C24.8333 36.9 25.1333 36.7666 25.4 36.5L28.6 32.7C28.8667 32.4333 29 32.0666 29 31.6C29 31.1333 28.8667 30.7666 28.6 30.5L25.4 26.9C25.1333 26.6333 24.8333 26.4666 24.5 26.4C24.1667 26.3333 23.8667 26.4333 23.6 26.7C23.3333 26.9666 23.2 27.2666 23.2 27.6C23.2 27.9333 23.3333 28.1666 23.6 28.3L26.4 31.7L23.6 34.9C23.3333 35.1666 23.2 35.4333 23.2 35.7C23.2 35.9666 23.3333 36.2333 23.6 36.5ZM12 26.7C11.8667 26.4333 11.6333 26.3333 11.3 26.4C10.9667 26.4666 10.6667 26.6333 10.4 26.9L6.99998 30.5C6.73332 30.7666 6.59998 31.1333 6.59998 31.6C6.59998 32.0666 6.73332 32.4333 6.99998 32.7L10.4 36.5C10.6667 36.7666 10.9667 36.9 11.3 36.9C11.6333 36.9 11.9 36.7666 12.1 36.5C12.3 36.2333 12.4333 35.9666 12.5 35.7C12.5667 35.4333 12.4667 35.1666 12.2 34.9L9.19998 31.7L12.2 28.3C12.4667 28.1666 12.5667 27.9333 12.5 27.6C12.4333 27.2666 12.2667 26.9666 12 26.7ZM57.4 39.3H57C56.7333 38.5 56.4 37.7666 56 37.1L56.4 36.9C56.9333 36.3666 57.2 35.7333 57.2 35C57.2 34.2666 56.9333 33.6333 56.4 33.1L55.8 32.5V7.29998C55.8 5.56664 55.2333 4.06664 54.1 2.79998C52.9667 1.53331 51.6667 0.899975 50.2 0.899975H5.59998C3.99998 0.899975 2.66665 1.53331 1.59998 2.79998C0.533318 4.06664 -1.52588e-05 5.56664 -1.52588e-05 7.29998V40.3C-1.52588e-05 42.0333 0.533318 43.5333 1.59998 44.8C2.66665 46.0666 3.99998 46.7 5.59998 46.7H12.4C12.8 46.7 13.1 46.6 13.3 46.4C13.5 46.2 13.6 45.9333 13.6 45.6C13.6 45.2666 13.5 44.9666 13.3 44.7C13.1 44.4333 12.8 44.3 12.4 44.3H5.59998C4.66665 44.3 3.89998 43.9 3.29998 43.1C2.69998 42.3 2.39998 41.3666 2.39998 40.3V18.9H53.4V30.9L53 30.7C52.2 30.7 51.5333 30.9666 51 31.5L50.8 31.9C50.1333 31.5 49.4 31.1666 48.6 30.9V30.5C48.6 29.8333 48.3333 29.2333 47.8 28.7C47.2667 28.1666 46.6667 27.9 46 27.9H43.8C43 27.9 42.3667 28.1666 41.9 28.7C41.4333 29.2333 41.2 29.8333 41.2 30.5V31.1C40.4 31.2333 39.6667 31.5 39 31.9L38.8 31.7C38.2667 31.1666 37.6 30.9 36.8 30.9C36.1333 30.9 35.5333 31.1 35 31.5L33.4 33.1C32.8667 33.6333 32.6 34.2666 32.6 35C32.6 35.7333 32.8667 36.3666 33.4 36.9L33.8 37.1C33.4 37.7666 33.1333 38.5 33 39.3H32.4C31.7333 39.3 31.1333 39.5666 30.6 40.1C30.0667 40.6333 29.8 41.2333 29.8 41.9V44.3H23C22.6 44.3 22.3 44.4333 22.1 44.7C21.9 44.9666 21.8 45.2666 21.8 45.6C21.8 45.9333 21.9 46.2 22.1 46.4C22.3 46.6 22.6 46.7 23 46.7H33C33.1333 47.5 33.4 48.2333 33.8 48.9L33.4 49.1C33 49.6333 32.8 50.2666 32.8 51C32.8 51.7333 33 52.3666 33.4 52.9L35 54.5C35.5333 54.9 36.1333 55.1 36.8 55.1C37.6 55.1 38.2667 54.9 38.8 54.5L39 54.1C39.6667 54.5 40.4 54.7666 41.2 54.9V55.5C41.2 56.1666 41.4667 56.7666 42 57.3C42.5333 57.8333 43.1333 58.1 43.8 58.1H46C46.6667 58.1 47.2667 57.8333 47.8 57.3C48.3333 56.7666 48.6 56.1666 48.6 55.5V54.9C49.4 54.7666 50.1333 54.5 50.8 54.1L51 54.5C51.5333 54.9 52.2 55.1 53 55.1C53.6667 55.1 54.2667 54.9 54.8 54.5L56.4 52.9C56.9333 52.3666 57.2 51.7333 57.2 51C57.2 50.2666 56.9333 49.6333 56.4 49.1L56 48.9C56.4 48.2333 56.7333 47.5 57 46.7H57.4C58.0667 46.7 58.6667 46.4333 59.2 45.9C59.7333 45.3666 60 44.7666 60 44.1V41.9C60 41.2333 59.7333 40.6333 59.2 40.1C58.6667 39.5666 58.0667 39.3 57.4 39.3ZM2.39998 16.5V7.29998C2.39998 6.23331 2.69998 5.29998 3.29998 4.49997C3.89998 3.69997 4.66665 3.29998 5.59998 3.29998H50.2C51 3.29998 51.7333 3.69997 52.4 4.49997C53.0667 5.29998 53.4 6.23331 53.4 7.29998V16.5H2.39998ZM57.6 44.1C57.6 44.2333 57.5333 44.3 57.4 44.3H56C55.3333 44.3 54.9333 44.6333 54.8 45.3C54.5333 46.3666 54.1333 47.4333 53.6 48.5C53.4667 48.6333 53.4 48.8333 53.4 49.1C53.4 49.3666 53.5333 49.6333 53.8 49.9L54.6 50.9L54.8 51.1L54.6 51.3L53.2 52.7L53 52.9L52.8 52.7L51.8 51.7C51.4 51.3 50.9333 51.3 50.4 51.7C49.3333 52.2333 48.2667 52.6333 47.2 52.9C46.9333 53.0333 46.7 53.2 46.5 53.4C46.3 53.6 46.2 53.8333 46.2 54.1V55.5C46.2 55.6333 46.1333 55.7 46 55.7H43.8C43.6667 55.7 43.6 55.6333 43.6 55.5V54.1C43.6 53.8333 43.5 53.6 43.3 53.4C43.1 53.2 42.8667 53.0333 42.6 52.9C41.5333 52.6333 40.4667 52.2333 39.4 51.7C39.2667 51.5666 39.0667 51.5 38.8 51.5C38.5333 51.5 38.2667 51.5666 38 51.7L37 52.7L36.8 52.9L36.6 52.7L35.2 51.3C35.0667 51.1666 35.0667 51.0333 35.2 50.9L36.2 49.9C36.3333 49.6333 36.4 49.3666 36.4 49.1C36.4 48.8333 36.3333 48.6333 36.2 48.5C35.6667 47.4333 35.2667 46.3666 35 45.3C34.8667 44.6333 34.4667 44.3 33.8 44.3H32.4C32.2667 44.3 32.2 44.2333 32.2 44.1V41.9C32.2 41.7666 32.2667 41.7 32.4 41.7H33.8C34.0667 41.7 34.3 41.6 34.5 41.4C34.7 41.2 34.8667 40.9666 35 40.7C35.2667 39.6333 35.6667 38.6333 36.2 37.7C36.6 37.1666 36.5333 36.6333 36 36.1L35.2 35.1L35 34.9L35.2 34.7L36.6 33.3L36.8 33.1L37 33.3L38 34.3C38.1333 34.4333 38.3667 34.5333 38.7 34.6C39.0333 34.6666 39.2667 34.5666 39.4 34.3C40.4667 33.7666 41.5333 33.3666 42.6 33.1C43.2667 32.9666 43.6 32.5666 43.6 31.9V30.5C43.6 30.3666 43.6667 30.3 43.8 30.3H46C46.1333 30.3 46.2 30.3666 46.2 30.5V31.9C46.2 32.1666 46.3 32.4 46.5 32.6C46.7 32.8 46.9333 32.9666 47.2 33.1C48.2667 33.3666 49.3333 33.7666 50.4 34.3C50.9333 34.7 51.4 34.6333 51.8 34.1L52.8 33.3L53 33.1L53.2 33.3L54.6 34.7L54.8 34.9L54.6 35.1L53.8 36.1C53.5333 36.3666 53.4 36.6333 53.4 36.9C53.4 37.1666 53.4667 37.3666 53.6 37.5C54.1333 38.5666 54.5333 39.6333 54.8 40.7C54.9333 41.3666 55.3333 41.7 56 41.7H57.4C57.5333 41.7 57.6 41.7666 57.6 41.9V44.1ZM45 35.7C43 35.7 41.2667 36.4333 39.8 37.9C38.3333 39.3666 37.6 41.0666 37.6 43C37.6 44.9333 38.3333 46.6333 39.8 48.1C41.2667 49.5666 42.9667 50.3 44.9 50.3C46.8333 50.3 48.5333 49.5666 50 48.1C51.4667 46.6333 52.2 44.9333 52.2 43C52.2 41.0666 51.4667 39.3666 50 37.9C48.5333 36.4333 46.8667 35.7 45 35.7ZM45 47.9C43.5333 47.9 42.3333 47.4333 41.4 46.5C40.4667 45.5666 40 44.4 40 43C40 41.6 40.4667 40.4333 41.4 39.5C42.3333 38.5666 43.5 38.1 44.9 38.1C46.3 38.1 47.4667 38.5666 48.4 39.5C49.3333 40.4333 49.8 41.6 49.8 43C49.8 44.4 49.3333 45.5666 48.4 46.5C47.4667 47.4333 46.3333 47.9 45 47.9ZM17.8 44.3C17.4 44.3 17.1 44.4333 16.9 44.7C16.7 44.9666 16.6 45.2666 16.6 45.6C16.6 45.9333 16.7 46.2 16.9 46.4C17.1 46.6 17.4 46.7 17.8 46.7C18.0667 46.7 18.3333 46.6 18.6 46.4C18.8667 46.2 19 45.9333 19 45.6C19 45.2666 18.8667 44.9666 18.6 44.7C18.3333 44.4333 18.0667 44.3 17.8 44.3Z" fill="#FD4766"/>
</svg>
