<svg width="60" height="61" viewBox="0 0 60 61" fill="none" xmlns="http://www.w3.org/2000/svg">
<path id="Vector" d="M58.8 24.3L52.8 23.5C52.2667 22.0333 51.6667 20.6333 51 19.3L54.8 14.5C55.0667 14.2333 55.1667 13.9333 55.1 13.6C55.0333 13.2667 54.9333 13.0333 54.8 12.9L47.6 5.7C47.4667 5.56667 47.2333 5.46667 46.9 5.4C46.5667 5.33333 46.2667 5.43333 46 5.7L41.2 9.5C39.8667 8.83333 38.4667 8.3 37 7.9L36.2 1.7C36.2 1.3 36.0667 1 35.8 0.799999C35.5333 0.599998 35.2667 0.5 35 0.5H25C24.7333 0.5 24.4667 0.599998 24.2 0.799999C23.9333 1 23.8 1.3 23.8 1.7L23 7.7C21.5333 8.23333 20.1333 8.83333 18.8 9.5L14 5.7C13.7333 5.43333 13.4333 5.33333 13.1 5.4C12.7667 5.46667 12.5333 5.56667 12.4 5.7L5.2 12.9C5.06667 13.0333 4.96667 13.2667 4.9 13.6C4.83333 13.9333 4.93333 14.2333 5.2 14.5L9 19.3C8.33333 20.6333 7.8 22.0333 7.4 23.5L1.2 24.3C0.8 24.3 0.5 24.4333 0.3 24.7C0.1 24.9667 0 25.2333 0 25.5V35.5C0 35.7667 0.1 36.0333 0.3 36.3C0.5 36.5667 0.8 36.7 1.2 36.7L7.2 37.5C7.73333 38.9667 8.33333 40.3667 9 41.7L5.2 46.5C4.93333 46.7667 4.83333 47.0667 4.9 47.4C4.96667 47.7333 5.06667 47.9667 5.2 48.1L12.4 55.3C12.5333 55.4333 12.7667 55.5333 13.1 55.6C13.4333 55.6667 13.7333 55.5667 14 55.3L18.8 51.5C20.1333 52.1667 21.5333 52.7 23 53.1L23.8 59.3C23.8 59.7 23.9333 60 24.2 60.2C24.4667 60.4 24.7333 60.5 25 60.5H35C35.2667 60.5 35.5333 60.4 35.8 60.2C36.0667 60 36.2 59.7 36.2 59.3L37 53.3C38.4667 52.7667 39.8667 52.1667 41.2 51.5L46 55.3C46.2667 55.5667 46.5667 55.6667 46.9 55.6C47.2333 55.5333 47.4667 55.4333 47.6 55.3L54.8 48.1C54.9333 47.9667 55.0333 47.7333 55.1 47.4C55.1667 47.0667 55.0667 46.7667 54.8 46.5L51 41.7C51.6667 40.3667 52.2 38.9667 52.6 37.5L58.8 36.7C59.2 36.7 59.5 36.5667 59.7 36.3C59.9 36.0333 60 35.7667 60 35.5V25.5C60 25.2333 59.9 24.9667 59.7 24.7C59.5 24.4333 59.2 24.3 58.8 24.3ZM57.6 34.3L51.6 35.1C51.0667 35.1 50.7333 35.3667 50.6 35.9C50.0667 37.7667 49.3333 39.5 48.4 41.1C48.1333 41.6333 48.1333 42.1 48.4 42.5L52.2 47.3L46.8 52.7L42 48.9C41.6 48.6333 41.1333 48.6333 40.6 48.9C39 49.8333 37.2667 50.5667 35.4 51.1C34.8667 51.2333 34.6 51.5667 34.6 52.1L33.8 58.1H26.2L25.4 52.1C25.4 51.5667 25.1333 51.2333 24.6 51.1C22.7333 50.5667 21 49.8333 19.4 48.9C18.8667 48.6333 18.4 48.6333 18 48.9L13.2 52.7L7.8 47.3L11.6 42.5C11.8667 42.1 11.8667 41.6333 11.6 41.1C10.6667 39.5 9.93333 37.7667 9.4 35.9C9.26667 35.3667 8.93333 35.1 8.4 35.1L2.6 34.3V26.7L8.4 25.9C8.93333 25.9 9.26667 25.6333 9.4 25.1C9.93333 23.2333 10.6667 21.5 11.6 19.9C11.8667 19.3667 11.8667 18.9 11.6 18.5L7.8 13.7L13.2 8.3L18 12.1C18.4 12.3667 18.8667 12.3667 19.4 12.1C21 11.1667 22.7333 10.4333 24.6 9.9C25.1333 9.76667 25.4 9.43333 25.4 8.9L26.2 2.9H33.8L34.6 8.9C34.6 9.43333 34.8667 9.76667 35.4 9.9C37.2667 10.4333 39 11.1667 40.6 12.1C41.1333 12.3667 41.6 12.3667 42 12.1L46.8 8.3L52.2 13.9L48.4 18.5C48.1333 18.9 48.1333 19.3667 48.4 19.9C49.3333 21.5 50.0667 23.2333 50.6 25.1C50.7333 25.6333 51.0667 25.9 51.6 25.9L57.6 26.7V34.3ZM45.2 21.9C43.7333 19.2333 41.6667 17.1 39 15.5C36.3333 13.9 33.4333 13.0667 30.3 13C27.1667 12.9333 24.2333 13.6667 21.5 15.2C18.7667 16.7333 16.6 18.8333 15 21.5C13.4 24.1667 12.5667 27.0667 12.5 30.2C12.4333 33.3333 13.2 36.3 14.8 39.1L15 39.3C15.1333 39.5667 15.4 39.7 15.8 39.7C16.2 39.7 16.4667 39.5667 16.6 39.3L24.8 31.1L27.8 35.1C28.0667 35.3667 28.3667 35.5 28.7 35.5C29.0333 35.5 29.3333 35.3667 29.6 35.1L37.6 27.3V31.7H40V24.3C40 23.9 39.8667 23.6 39.6 23.4C39.3333 23.2 39.0667 23.1 38.8 23.1H31.2V25.5H35.8L28.8 32.3L26 28.5C25.7333 28.2333 25.4333 28.0667 25.1 28C24.7667 27.9333 24.4667 28.0333 24.2 28.3L16.2 36.3C15.1333 33.7667 14.8 31.1333 15.2 28.4C15.6 25.6667 16.6667 23.2333 18.4 21.1C20.1333 18.9667 22.2333 17.4333 24.7 16.5C27.1667 15.5667 29.7333 15.3 32.4 15.7C35.0667 16.1 37.4333 17.1667 39.5 18.9C41.5667 20.6333 43.0667 22.7333 44 25.2C44.9333 27.6667 45.2 30.2333 44.8 32.9C44.4 35.5667 43.3333 37.9667 41.6 40.1C41.0667 40.6333 40.5333 41.1667 40 41.7V34.3H37.6V43.5C36.8 43.9 35.9333 44.3 35 44.7V36.7H32.6V45.3C31.6667 45.4333 30.8 45.5 30 45.5V40.5H27.6V45.3C26.6667 45.1667 25.8 44.9667 25 44.7V38.1H22.6V43.5C21.8 43.1 21.0667 42.6333 20.4 42.1L18.8 44.1C22.1333 46.6333 25.8667 47.9667 30 48.1C33.0667 47.9667 35.9333 47.1667 38.6 45.7C41.2667 44.2333 43.4 42.1667 45 39.5C46.6 36.8333 47.4333 33.9333 47.5 30.8C47.5667 27.6667 46.8 24.7 45.2 21.9Z" fill="#FD4766"/>
</svg>
