<svg width="60" height="61" viewBox="0 0 60 61" fill="none" xmlns="http://www.w3.org/2000/svg">
<path id="Vector" d="M42.6 27.3H53.6C53.8667 27.9667 54.2667 28.5333 54.8 29C55.3333 29.4667 56 29.7 56.8 29.7C57.6 29.7 58.3333 29.4 59 28.8C59.6667 28.2 60 27.4333 60 26.5C60 25.5667 59.6667 24.8 59 24.2C58.3333 23.6 57.6 23.3 56.8 23.3C56 23.3 55.3333 23.5 54.8 23.9C54.2667 24.3 53.8667 24.8333 53.6 25.5H42.6C42.4667 22.7 41.4667 20.2333 39.6 18.1L47.4 10.3C47.8 10.7 48.3333 10.9 49 10.9C49.8 10.9 50.5333 10.5667 51.2 9.9C51.8667 9.23333 52.2 8.46667 52.2 7.6C52.2 6.73333 51.8667 5.96667 51.2 5.3C50.5333 4.63333 49.7667 4.3 48.9 4.3C48.0333 4.3 47.3 4.6 46.7 5.2C46.1 5.8 45.7667 6.46667 45.7 7.2C45.6333 7.93333 45.7333 8.56667 46 9.1L38.4 16.9C36 14.7667 33.2 13.7 30 13.7C26.8 13.7 24 14.7667 21.6 16.9L14 9.1C14.2667 8.56667 14.3667 7.93333 14.3 7.2C14.2333 6.46667 13.9 5.8 13.3 5.2C12.7 4.6 11.9667 4.3 11.1 4.3C10.2333 4.3 9.46667 4.63333 8.8 5.3C8.13333 5.96667 7.8 6.73333 7.8 7.6C7.8 8.46667 8.13333 9.23333 8.8 9.9C9.46667 10.5667 10.2 10.9 11 10.9C11.6667 10.9 12.2 10.7 12.6 10.3L20.4 18.1C18.5333 20.2333 17.5333 22.7 17.4 25.5H6.4C6.13333 24.8333 5.73333 24.3 5.2 23.9C4.66667 23.5 4 23.3 3.2 23.3C2.4 23.3 1.66667 23.6 1 24.2C0.333333 24.8 0 25.5667 0 26.5C0 27.4333 0.333333 28.2 1 28.8C1.66667 29.4 2.4 29.7 3.2 29.7C4 29.7 4.66667 29.4667 5.2 29C5.73333 28.5333 6.13333 27.9667 6.4 27.3H17.4C17.5333 29.8333 18.3333 32.0667 19.8 34C21.2667 35.9333 23.1333 37.3667 25.4 38.3V42.1C25.4 42.3667 25.4667 42.6 25.6 42.8C25.7333 43 25.9333 43.1 26.2 43.1C26.4667 43.1 26.6667 43 26.8 42.8C26.9333 42.6 27 42.3667 27 42.1V26.5C27 25.7 27.3 25 27.9 24.4C28.5 23.8 29.2 23.5 30 23.5C30.8 23.5 31.5 23.8 32.1 24.4C32.7 25 33 25.7 33 26.5V50.3C33 50.5667 33.0667 50.7667 33.2 50.9C33.3333 51.0333 33.5333 51.1 33.8 51.1C34.0667 51.1 34.2667 51.0333 34.4 50.9C34.5333 50.7667 34.6 50.5667 34.6 50.3V44.3C34.6 43.5 34.9 42.8333 35.5 42.3C36.1 41.7667 36.8 41.5 37.6 41.5C38.4 41.5 39.0667 41.7667 39.6 42.3C40.1333 42.8333 40.4 43.5 40.4 44.3V50.3C40.4 50.5667 40.5 50.7667 40.7 50.9C40.9 51.0333 41.1333 51.1 41.4 51.1C41.6667 51.1 41.8667 51.0333 42 50.9C42.1333 50.7667 42.2 50.5667 42.2 50.3V47.9C42.2 47.1 42.5 46.4 43.1 45.8C43.7 45.2 44.4 44.9 45.2 44.9C46 44.9 46.6667 45.2 47.2 45.8C47.7333 46.4 48 47.1 48 47.9V50.3C48 50.5667 48.1 50.7667 48.3 50.9C48.5 51.0333 48.7333 51.1 49 51.1C49.2667 51.1 49.4667 51.0333 49.6 50.9C49.7333 50.7667 49.8 50.5667 49.8 50.3C49.8 49.5 50.1 48.8 50.7 48.2C51.3 47.6 52 47.3 52.8 47.3C53.6 47.3 54.2667 47.6 54.8 48.2C55.3333 48.8 55.6 49.5 55.6 50.3V52.7C55.6 52.9667 55.7 53.1667 55.9 53.3C56.1 53.4333 56.3 53.5 56.5 53.5C56.7 53.5 56.9 53.4333 57.1 53.3C57.3 53.1667 57.4 52.9667 57.4 52.7V50.3C57.4 48.9667 56.9333 47.8667 56 47C55.0667 46.1333 54 45.7 52.8 45.7C51.6 45.7 50.5333 46.0333 49.6 46.7C49.3333 45.7667 48.8 44.9667 48 44.3C47.2 43.6333 46.2667 43.3 45.2 43.3C44.1333 43.3 43.1333 43.6333 42.2 44.3C42.2 42.9667 41.7333 41.8667 40.8 41C39.8667 40.1333 38.8333 39.7 37.7 39.7C36.5667 39.7 35.5333 40.0333 34.6 40.7V38.3C36.8667 37.3667 38.7333 35.9333 40.2 34C41.6667 32.0667 42.4667 29.8333 42.6 27.3ZM56.8 24.9C57.2 24.9 57.5333 25.0667 57.8 25.4C58.0667 25.7333 58.2 26.1 58.2 26.5C58.2 26.9 58.0667 27.2333 57.8 27.5C57.5333 27.7667 57.2 27.9 56.8 27.9C56.4 27.9 56.0333 27.7667 55.7 27.5C55.3667 27.2333 55.2 26.9 55.2 26.5C55.2 26.1 55.3667 25.7333 55.7 25.4C56.0333 25.0667 56.4 24.9 56.8 24.9ZM47.8 6.5C48.2 6.23333 48.6 6.1 49 6.1C49.4 6.1 49.7333 6.23333 50 6.5C50.2667 6.76667 50.4 7.1 50.4 7.5C50.4 7.9 50.2667 8.26667 50 8.6C49.7333 8.93333 49.4 9.1 49 9.1C48.6 9.1 48.2333 8.93333 47.9 8.6C47.5667 8.26667 47.4 7.9 47.4 7.5C47.4 7.1 47.5333 6.76667 47.8 6.5ZM10 8.7C9.73333 8.3 9.6 7.9 9.6 7.5C9.6 7.1 9.73333 6.76667 10 6.5C10.2667 6.23333 10.6 6.1 11 6.1C11.4 6.1 11.7667 6.23333 12.1 6.5C12.4333 6.76667 12.6 7.1 12.6 7.5C12.6 7.9 12.4333 8.26667 12.1 8.6C11.7667 8.93333 11.4 9.1 11 9.1C10.6 9.1 10.2667 8.96667 10 8.7ZM3.2 27.9C2.8 27.9 2.46667 27.7667 2.2 27.5C1.93333 27.2333 1.8 26.9 1.8 26.5C1.8 26.1 1.93333 25.7333 2.2 25.4C2.46667 25.0667 2.8 24.9 3.2 24.9C3.6 24.9 3.96667 25.0667 4.3 25.4C4.63333 25.7333 4.8 26.1 4.8 26.5C4.8 26.9 4.63333 27.2333 4.3 27.5C3.96667 27.7667 3.6 27.9 3.2 27.9ZM30 21.9C28.6667 21.9 27.5667 22.3333 26.7 23.2C25.8333 24.0667 25.4 25.1667 25.4 26.5V32.3C24.4667 31.5 23.7667 30.6 23.3 29.6C22.8333 28.6 22.6 27.5667 22.6 26.5C22.6 24.5 23.3333 22.7667 24.8 21.3C26.2667 19.8333 28 19.1 30 19.1C31.2 19.1 32.3333 19.3667 33.4 19.9C33.6667 20.0333 33.9 20.0667 34.1 20C34.3 19.9333 34.4667 19.8 34.6 19.6C34.7333 19.4 34.7667 19.1667 34.7 18.9C34.6333 18.6333 34.4667 18.4333 34.2 18.3C32.8667 17.6333 31.4667 17.3 30 17.3C27.4667 17.3 25.3 18.2 23.5 20C21.7 21.8 20.8 23.9667 20.8 26.5C20.8 28.1 21.2 29.6 22 31C22.8 32.4 23.9333 33.5 25.4 34.3V36.3C23.4 35.5 21.8333 34.2 20.7 32.4C19.5667 30.6 19 28.6333 19 26.5C19 23.4333 20.0667 20.8333 22.2 18.7C24.3333 16.5667 26.9333 15.5 30 15.5C33.0667 15.5 35.6667 16.5667 37.8 18.7C39.9333 20.8333 41 23.4333 41 26.5C41 28.6333 40.4333 30.6 39.3 32.4C38.1667 34.2 36.6 35.5 34.6 36.3V34.3C36.0667 33.5 37.2 32.4 38 31C38.8 29.6 39.2 28.0333 39.2 26.3C39.2 24.5667 38.6667 22.9667 37.6 21.5C37.4667 21.2333 37.3 21.0667 37.1 21C36.9 20.9333 36.7 20.9667 36.5 21.1C36.3 21.2333 36.1667 21.4333 36.1 21.7C36.0333 21.9667 36.0667 22.1667 36.2 22.3C37 23.6333 37.4 25.0333 37.4 26.5C37.4 27.5667 37.1667 28.6 36.7 29.6C36.2333 30.6 35.5333 31.5 34.6 32.3V26.5C34.6 25.1667 34.1667 24.0667 33.3 23.2C32.4333 22.3333 31.3333 21.9 30 21.9ZM19.8 7.1C19.9333 7.1 20.0667 7.03333 20.2 6.9C22.3333 5.83333 24.6 5.16666 27 4.9C27.1333 5.43333 27.5 5.9 28.1 6.3C28.7 6.7 29.3333 6.9 30 6.9C30.6667 6.9 31.3 6.7 31.9 6.3C32.5 5.9 32.8667 5.43333 33 4.9C35.4 5.16666 37.6667 5.83333 39.8 6.9L40.2 7.1C40.6 7.1 40.8667 6.96667 41 6.7C41.1333 6.43333 41.1667 6.16666 41.1 5.9C41.0333 5.63333 40.8667 5.43333 40.6 5.3C38.2 4.23333 35.7333 3.5 33.2 3.1C33.0667 2.3 32.7 1.66666 32.1 1.2C31.5 0.733334 30.8 0.5 30 0.5C29.2 0.5 28.5 0.733334 27.9 1.2C27.3 1.66666 26.9333 2.3 26.8 3.1C24.2667 3.5 21.8 4.23333 19.4 5.3C19.1333 5.43333 18.9667 5.63333 18.9 5.9C18.8333 6.16666 18.8667 6.43333 19 6.7C19.1333 6.96667 19.4 7.1 19.8 7.1ZM30 2.3C30.4 2.3 30.7333 2.43333 31 2.7C31.2667 2.96667 31.4 3.3 31.4 3.7C31.4 4.1 31.2667 4.46667 31 4.8C30.7333 5.13333 30.4 5.3 30 5.3C29.6 5.3 29.2667 5.13333 29 4.8C28.7333 4.46667 28.6 4.1 28.6 3.7C28.6 3.3 28.7333 2.96667 29 2.7C29.2667 2.43333 29.6 2.3 30 2.3ZM26.2 45.5C25.9333 45.5 25.7333 45.5667 25.6 45.7C25.4667 45.8333 25.4 46.0333 25.4 46.3V52.1L22.4 49.1C21.4667 48.1667 20.3667 47.7 19.1 47.7C17.8333 47.7 16.7333 48.1667 15.8 49.1C14.8667 50.0333 14.4 51.1333 14.4 52.4C14.4 53.6667 14.8667 54.7667 15.8 55.7L20.4 60.3C20.5333 60.4333 20.7333 60.5 21 60.5C21.2667 60.5 21.4667 60.4 21.6 60.2C21.7333 60 21.8 59.8 21.8 59.6C21.8 59.4 21.7333 59.1667 21.6 58.9L17 54.5C16.4667 53.9667 16.2 53.3 16.2 52.5C16.2 51.7 16.5 51 17.1 50.4C17.7 49.8 18.4 49.5 19.2 49.5C20 49.5 20.6667 49.7667 21.2 50.3L25.6 54.7C25.8667 54.9667 26.1667 55.0333 26.5 54.9C26.8333 54.7667 27 54.5 27 54.1V46.3C27 46.0333 26.9333 45.8333 26.8 45.7C26.6667 45.5667 26.4667 45.5 26.2 45.5ZM56.6 55.9C56.3333 55.9 56.1 56 55.9 56.2C55.7 56.4 55.6 56.6333 55.6 56.9V59.7C55.6 59.8333 55.7 60 55.9 60.2C56.1 60.4 56.3 60.5 56.5 60.5C56.7 60.5 56.9 60.4 57.1 60.2C57.3 60 57.4 59.8333 57.4 59.7V56.9C57.4 56.6333 57.3 56.4 57.1 56.2C56.9 56 56.7333 55.9 56.6 55.9Z" fill="#FD4766"/>
</svg>
