<svg width="60" height="61" viewBox="0 0 60 61" fill="none" xmlns="http://www.w3.org/2000/svg">
<path id="Vector" d="M59.6 53.9L58.6 52.9C58.4667 52.7667 58.2667 52.7 58 52.7C57.7333 52.7 57.5333 52.8 57.4 53C57.2667 53.2 57.2 53.4 57.2 53.6C57.2 53.8 57.2667 54.0333 57.4 54.3L58.2 54.9L54.4 58.7L48.2 52.3L51.8 48.7L54.8 51.5C54.9333 51.7667 55.1333 51.9 55.4 51.9C55.6667 51.9 55.8667 51.8 56 51.6C56.1333 51.4 56.2 51.1667 56.2 50.9C56.2 50.6333 56.1333 50.4333 56 50.3L47.8 42.1C47.5333 41.7 47.1667 41.5 46.7 41.5C46.2333 41.5 45.8667 41.7 45.6 42.1H45.4L42.2 39.1C44.6 36.1667 46.2 32.9 47 29.3H53.2C53.3333 29.3 53.5 29.2 53.7 29C53.9 28.8 54 28.6 54 28.4C54 28.2 53.9 28 53.7 27.8C53.5 27.6 53.3333 27.5 53.2 27.5H47.2L47.4 25.9H57.4C57.5333 25.9 57.7 25.8 57.9 25.6C58.1 25.4 58.2 25.1667 58.2 24.9C58.2 24.6333 58.1 24.4333 57.9 24.3C57.7 24.1667 57.5333 24.1 57.4 24.1H47.4V22.3H53.2C53.3333 22.3 53.5 22.2333 53.7 22.1C53.9 21.9667 54 21.7667 54 21.5C54 21.2333 53.9 21 53.7 20.8C53.5 20.6 53.3333 20.5 53.2 20.5H47.2C46.5333 16.5 44.9333 12.8333 42.4 9.5C42.2667 9.36666 42.0667 9.26667 41.8 9.2C41.5333 9.13333 41.3 9.16666 41.1 9.3C40.9 9.43333 40.8 9.63333 40.8 9.9C40.8 10.1667 40.8667 10.4333 41 10.7C44.2 14.5667 45.8 19.1 45.8 24.3C45.8 28.1667 44.8 31.8 42.8 35.2C40.8 38.6 38.1 41.3 34.7 43.3C31.3 45.3 27.6333 46.3 23.7 46.3C19.7667 46.3 16.1 45.3 12.7 43.3C9.29998 41.3 6.63332 38.6 4.69999 35.2C2.76665 31.8 1.79998 28.1333 1.79998 24.2C1.79998 20.2667 2.76665 16.6 4.69999 13.2C6.63332 9.8 9.29998 7.13333 12.7 5.2C16.1 3.26667 19.8 2.3 23.8 2.3C26.4667 2.3 29.0667 2.8 31.6 3.8C34.1333 4.8 36.4667 6.16666 38.6 7.9C38.7333 8.16666 38.9333 8.26667 39.2 8.2C39.4667 8.13333 39.6667 8.03333 39.8 7.9C39.9333 7.76667 40 7.56667 40 7.3C40 7.03333 39.8667 6.83333 39.6 6.7C37.4667 4.7 35.0333 3.16666 32.3 2.1C29.5667 1.03333 26.7333 0.5 23.8 0.5C19.4 0.5 15.4 1.56667 11.8 3.7C8.19998 5.83333 5.33332 8.7 3.19998 12.3C1.06665 15.9 -1.52588e-05 19.9 -1.52588e-05 24.3C-1.52588e-05 28.0333 0.833318 31.5667 2.49998 34.9C4.16665 38.2333 6.46665 41 9.39999 43.2C12.3333 45.4 15.6 46.8333 19.2 47.5V53.5C19.2 53.7667 19.3 53.9667 19.5 54.1C19.7 54.2333 19.9 54.3 20.1 54.3C20.3 54.3 20.5 54.2333 20.7 54.1C20.9 53.9667 21 53.7667 21 53.5V47.9H22.6V57.5C22.6 57.7667 22.7 58 22.9 58.2C23.1 58.4 23.3333 58.5 23.6 58.5C23.8667 58.5 24.0667 58.4 24.2 58.2C24.3333 58 24.4 57.7667 24.4 57.5V47.9H26.2V53.5C26.2 53.7667 26.2667 53.9667 26.4 54.1C26.5333 54.2333 26.7333 54.3 27 54.3C27.2667 54.3 27.5 54.2333 27.7 54.1C27.9 53.9667 28 53.7667 28 53.5V47.5C31.8667 46.8333 35.4 45.2333 38.6 42.7L41.6 45.9V46.1C41.2 46.3667 41 46.7333 41 47.2C41 47.6667 41.2 48.0333 41.6 48.3L53.4 60.1C53.6667 60.3667 54 60.5 54.4 60.5C54.8 60.5 55.2 60.3667 55.6 60.1L59.6 56.1C59.8667 55.7 60 55.3 60 54.9C60 54.5 59.8667 54.1667 59.6 53.9ZM41.2 40.3L44.2 43.5L43 44.7L39.8 41.7L41.2 40.3ZM46.8 51.1L45.6 49.9L49.4 46.1L50.6 47.3L46.8 51.1ZM46.6 43.5L48.2 44.9L44.4 48.7L43 47.1L46.6 43.5ZM11.4 40.3C15 42.9667 19.1333 44.3667 23.8 44.5C27.4 44.5 30.7333 43.5667 33.8 41.7C36.8667 39.8333 39.3333 37.3667 41.2 34.3C43.0667 31.2333 44 27.8667 44 24.2C44 20.5333 43.0667 17.1667 41.2 14.1C39.3333 11.0333 36.8667 8.6 33.8 6.8C30.7333 5 27.4 4.1 23.8 4.1C21 4.1 18.4 4.6 16 5.6C13.6 6.6 11.4333 8.03333 9.49998 9.9C7.56665 11.7667 6.09998 13.9333 5.09998 16.4C4.09998 18.8667 3.56665 21.4 3.49998 24C3.43332 26.6 3.86665 29.0667 4.79998 31.4C5.73332 33.7333 6.99998 35.8333 8.59999 37.7C8.73332 37.8333 8.93332 37.9 9.19998 37.9C9.46665 37.9 9.69998 37.8333 9.89999 37.7C10.1 37.5667 10.2 37.3667 10.2 37.1C10.2 36.8333 10.1333 36.6333 9.99998 36.5C8.39999 34.7667 7.19999 32.8667 6.39998 30.8C5.59998 28.7333 5.23332 26.5 5.29998 24.1C5.36665 21.7 5.86665 19.3667 6.79998 17.1C7.73332 14.8333 9.06665 12.8333 10.8 11.1C12.5333 9.36666 14.5 8.03333 16.7 7.1C18.9 6.16666 21.2667 5.7 23.8 5.7C27.1333 5.7 30.2 6.53333 33 8.2C35.8 9.86666 38.0333 12.1333 39.7 15C41.3667 17.8667 42.2 20.9667 42.2 24.3C42.2 27.6333 41.3667 30.7 39.7 33.5C38.0333 36.3 35.8 38.5333 33 40.2C30.2 41.8667 27.1333 42.7 23.8 42.7C19.5333 42.7 15.8 41.4333 12.6 38.9C12.3333 38.7667 12.1 38.7 11.9 38.7C11.7 38.7 11.5 38.8 11.3 39C11.1 39.2 11.0333 39.4333 11.1 39.7C11.1667 39.9667 11.2667 40.1667 11.4 40.3ZM27 8.5H21C20.6 8.5 20.2667 8.63333 20 8.9C19.7333 9.16666 19.6 9.5 19.6 9.9V12.9H14C13.6 12.9 13.2667 13.0333 13 13.3C12.7333 13.5667 12.6 13.9 12.6 14.3V23.7H11.4C11.1333 23.7 10.9333 23.8 10.8 24C10.6667 24.2 10.6 24.4333 10.6 24.7C10.6 24.9667 10.6667 25.1667 10.8 25.3C10.9333 25.4333 11.1333 25.5 11.4 25.5H36.6C36.8667 25.5 37.1 25.4333 37.3 25.3C37.5 25.1667 37.6 24.9667 37.6 24.7C37.6 24.4333 37.5 24.2 37.3 24C37.1 23.8 36.8667 23.7 36.6 23.7H35.4V18.7C35.4 18.4333 35.2667 18.1667 35 17.9C34.7333 17.6333 34.4667 17.5 34.2 17.5H28.4V9.9C28.4 9.5 28.2667 9.16666 28 8.9C27.7333 8.63333 27.4 8.5 27 8.5ZM14.4 14.7H19.6V23.7H14.4V14.7ZM21.4 10.3H26.6V23.7H21.4V10.3ZM33.6 19.1V23.7H28.4V19.1H33.6ZM33.8 32.9H29.8L27.8 28.1C27.6667 27.8333 27.4 27.7 27 27.7C26.6 27.7 26.3333 27.8333 26.2 28.1L23.6 35.1L21.8 30.1C21.6667 29.7 21.4333 29.4667 21.1 29.4C20.7667 29.3333 20.4667 29.5 20.2 29.9L18.6 32.9H14.4C14.1333 32.9 13.9333 33 13.8 33.2C13.6667 33.4 13.6 33.6333 13.6 33.9C13.6 34.1667 13.6667 34.3667 13.8 34.5C13.9333 34.6333 14.1333 34.7 14.4 34.7H19C19.4 34.7 19.6667 34.5667 19.8 34.3L20.8 32.5L22.8 37.9C22.9333 38.3 23.2 38.5 23.6 38.5C24 38.5 24.2667 38.3 24.4 37.9L27 30.9L28.4 34.1C28.5333 34.5 28.8 34.7 29.2 34.7H33.8C34.0667 34.7 34.3 34.6333 34.5 34.5C34.7 34.3667 34.8 34.1667 34.8 33.9C34.8 33.6333 34.7 33.4 34.5 33.2C34.3 33 34.0667 32.9 33.8 32.9Z" fill="#FD4766"/>
</svg>
