<svg width="58" height="57" viewBox="0 0 58 57" fill="none" xmlns="http://www.w3.org/2000/svg">
<path id="Vector" d="M42.39 41.7V34.7L43.59 34.1C43.99 33.8333 44.19 33.5 44.19 33.1V28.5C44.19 27.5666 43.9567 26.7333 43.49 26C43.0233 25.2666 42.3233 24.7 41.39 24.2999C42.0567 23.6333 42.39 22.7999 42.39 21.7999C42.39 20.7999 42.0233 19.9333 41.29 19.2C40.5567 18.4666 39.6567 18.0999 38.59 18.0999C37.5233 18.0999 36.6233 18.4666 35.89 19.2C35.1567 19.9333 34.79 20.7999 34.79 21.7999C34.79 22.7999 35.0567 23.6333 35.59 24.2999C34.9233 24.5666 34.3233 25.0333 33.79 25.7C33.39 25.0333 32.8567 24.5666 32.19 24.2999C32.7233 23.6333 32.99 22.7999 32.99 21.7999C32.99 20.7999 32.6233 19.9333 31.89 19.2C31.1567 18.4666 30.2567 18.0999 29.19 18.0999C28.1233 18.0999 27.2233 18.4666 26.49 19.2C25.7567 19.9333 25.39 20.7999 25.39 21.7999C25.39 22.7999 25.6567 23.6333 26.19 24.2999C25.5233 24.5666 24.99 25.0333 24.59 25.7C24.0567 25.0333 23.4567 24.5666 22.79 24.2999C23.3233 23.6333 23.59 22.7999 23.59 21.7999C23.59 20.7999 23.2233 19.9333 22.49 19.2C21.7567 18.4666 20.8567 18.0999 19.79 18.0999C18.7233 18.0999 17.8233 18.4666 17.09 19.2C16.3567 19.9333 15.99 20.7999 15.99 21.7999C15.99 22.7999 16.3233 23.6333 16.99 24.2999C16.0567 24.7 15.3567 25.2666 14.89 26C14.4233 26.7333 14.19 27.5666 14.19 28.5V33.1C14.19 33.5 14.39 33.8333 14.79 34.1L15.99 34.7V41.7C15.99 41.9666 16.09 42.1666 16.29 42.3C16.49 42.4333 16.7233 42.5 16.99 42.5H22.59C22.8567 42.5 23.09 42.4333 23.29 42.3C23.49 42.1666 23.59 41.9666 23.59 41.7V34.7L24.59 34.3L25.39 34.7V41.7C25.39 41.9666 25.49 42.1666 25.69 42.3C25.89 42.4333 26.1233 42.5 26.39 42.5H31.99C32.2567 42.5 32.49 42.4333 32.69 42.3C32.89 42.1666 32.99 41.9666 32.99 41.7V34.7L33.79 34.3L34.79 34.7V41.7C34.79 41.9666 34.89 42.1666 35.09 42.3C35.29 42.4333 35.5233 42.5 35.79 42.5H41.39C41.6567 42.5 41.89 42.4333 42.09 42.3C42.29 42.1666 42.39 41.9666 42.39 41.7ZM38.59 20.0999C39.1233 20.0999 39.5567 20.2666 39.89 20.5999C40.2233 20.9333 40.39 21.3666 40.39 21.9C40.39 22.4333 40.2233 22.9 39.89 23.2999C39.5567 23.7 39.1233 23.9 38.59 23.9C38.0567 23.9 37.59 23.7 37.19 23.2999C36.79 22.9 36.59 22.4333 36.59 21.9C36.59 21.3666 36.79 20.9333 37.19 20.5999C37.59 20.2666 38.0567 20.0999 38.59 20.0999ZM29.19 20.0999C29.7233 20.0999 30.1567 20.2666 30.49 20.5999C30.8233 20.9333 30.99 21.3666 30.99 21.9C30.99 22.4333 30.8233 22.9 30.49 23.2999C30.1567 23.7 29.7233 23.9 29.19 23.9C28.6567 23.9 28.2233 23.7 27.89 23.2999C27.5567 22.9 27.39 22.4333 27.39 21.9C27.39 21.3666 27.5567 20.9333 27.89 20.5999C28.2233 20.2666 28.6567 20.0999 29.19 20.0999ZM19.79 20.0999C20.3233 20.0999 20.79 20.2666 21.19 20.5999C21.59 20.9333 21.79 21.3666 21.79 21.9C21.79 22.4333 21.59 22.9 21.19 23.2999C20.79 23.7 20.3233 23.9 19.79 23.9C19.2567 23.9 18.8233 23.7 18.49 23.2999C18.1567 22.9 17.99 22.4333 17.99 21.9C17.99 21.3666 18.1567 20.9333 18.49 20.5999C18.8233 20.2666 19.2567 20.0999 19.79 20.0999ZM22.19 33.3C21.9233 33.4333 21.79 33.7 21.79 34.1V40.7H17.99V34.1C17.99 33.7 17.79 33.4333 17.39 33.3L15.99 32.7V28.5C15.99 27.7 16.29 27.0333 16.89 26.5C17.49 25.9666 18.1233 25.7 18.79 25.7H20.79C21.59 25.7 22.2567 25.9666 22.79 26.5C23.3233 27.0333 23.59 27.7 23.59 28.5V32.7L22.19 33.3ZM31.59 33.3C31.19 33.4333 30.99 33.7 30.99 34.1V40.7H27.39V34.1C27.39 33.7 27.19 33.4333 26.79 33.3L25.39 32.7V28.5C25.39 27.7 25.6567 27.0333 26.19 26.5C26.7233 25.9666 27.39 25.7 28.19 25.7H30.19C30.99 25.7 31.6567 25.9666 32.19 26.5C32.7233 27.0333 32.99 27.7 32.99 28.5V32.7L31.59 33.3ZM40.39 34.1V40.7H36.79V34.1C36.79 33.7 36.59 33.4333 36.19 33.3L34.79 32.7V28.5C34.79 27.7 35.0567 27.0333 35.59 26.5C36.1233 25.9666 36.79 25.7 37.59 25.7H39.59C40.2567 25.7 40.89 25.9666 41.49 26.5C42.09 27.0333 42.39 27.7 42.39 28.5V32.7L40.99 33.3C40.59 33.4333 40.39 33.7 40.39 34.1ZM47.99 0.29995C45.3233 0.29995 43.09 1.23328 41.29 3.09995C39.49 4.96662 38.59 7.19995 38.59 9.79995C38.59 12.4 39.49 14.5999 41.29 16.4C43.09 18.2 45.29 19.0999 47.89 19.0999C50.49 19.0999 52.7233 18.2 54.59 16.4C56.4567 14.5999 57.39 12.4 57.39 9.79995C57.39 7.19995 56.4567 4.96662 54.59 3.09995C52.7233 1.23328 50.5233 0.29995 47.99 0.29995ZM47.99 17.2999C45.8567 17.2999 44.0567 16.5666 42.59 15.0999C41.1233 13.6333 40.39 11.8666 40.39 9.79995C40.39 7.73328 41.1233 5.96662 42.59 4.49995C44.0567 3.03328 45.8233 2.29995 47.89 2.29995C49.9567 2.29995 51.7233 3.03328 53.19 4.49995C54.6567 5.96662 55.39 7.73328 55.39 9.79995C55.39 11.8666 54.6567 13.6333 53.19 15.0999C51.7233 16.5666 49.99 17.2999 47.99 17.2999ZM48.19 6.89995L47.99 7.09995L47.79 6.89995C47.1233 6.36662 46.3567 6.09995 45.49 6.09995C44.6233 6.09995 43.89 6.36662 43.29 6.89995C42.69 7.43328 42.39 8.13329 42.39 8.99995C42.39 9.86662 42.6567 10.6333 43.19 11.2999L47.39 15.0999C47.5233 15.2333 47.7233 15.2999 47.99 15.2999C48.2567 15.2999 48.4567 15.2333 48.59 15.0999L52.59 11.2999C53.2567 10.6333 53.59 9.86662 53.59 8.99995C53.59 8.13329 53.2567 7.43328 52.59 6.89995C51.9233 6.36662 51.1567 6.09995 50.29 6.09995C49.4233 6.09995 48.7233 6.36662 48.19 6.89995ZM51.39 9.89995L47.99 13.0999L44.59 9.89995C44.3233 9.63329 44.19 9.36662 44.19 9.09995C44.19 8.83328 44.3233 8.56662 44.59 8.29995C44.8567 8.03328 45.19 7.89995 45.59 7.89995C45.99 7.89995 46.3233 8.03328 46.59 8.29995L47.39 9.09995C47.5233 9.23328 47.7233 9.29995 47.99 9.29995C48.2567 9.29995 48.4567 9.23328 48.59 9.09995L49.39 8.29995C49.6567 8.03328 49.99 7.89995 50.39 7.89995C50.79 7.89995 51.1233 8.03328 51.39 8.29995C51.6567 8.56662 51.79 8.83328 51.79 9.09995C51.79 9.36662 51.6567 9.63329 51.39 9.89995ZM49.79 49.1C50.4567 49.1 50.8567 48.8333 50.99 48.3C51.39 47.1 51.79 46.2666 52.19 45.8C52.59 45.3333 53.39 44.9666 54.59 44.7C55.1233 44.4333 55.39 44.0333 55.39 43.5C55.39 42.9666 55.1233 42.5666 54.59 42.3C53.39 42.0333 52.59 41.6666 52.19 41.2C51.79 40.7333 51.39 39.9 50.99 38.7C50.8567 38.1666 50.49 37.9 49.89 37.9C49.29 37.9 48.8567 38.1666 48.59 38.7C48.3233 39.9 47.9567 40.7333 47.49 41.2C47.0233 41.6666 46.19 42.0333 44.99 42.3C44.4567 42.5666 44.19 42.9666 44.19 43.5C44.19 44.0333 44.4567 44.4333 44.99 44.7C46.19 44.9666 47.0233 45.3333 47.49 45.8C47.9567 46.2666 48.3233 47.1 48.59 48.3C48.8567 48.8333 49.2567 49.1 49.79 49.1ZM47.19 43.5C48.39 42.9666 49.2567 42.1 49.79 40.9C50.3233 42.1 51.19 42.9666 52.39 43.5C51.19 44.0333 50.3233 44.9 49.79 46.1C49.2567 44.9 48.39 44.0333 47.19 43.5ZM11.39 16.2999V13.5H14.19V11.7H11.39V8.89995H9.58999V11.7H6.78999V13.5H9.58999V16.2999H11.39ZM4.78999 9.69995H6.78999V5.89995H10.39V4.09995H6.78999V0.29995H4.78999V4.09995H0.98999V5.89995H4.78999V9.69995ZM29.19 52.9V54.7H31.19L30.99 52.9H29.19ZM25.39 54.5C25.9233 54.6333 26.5233 54.7 27.19 54.7L27.39 52.9L25.59 52.7L25.39 54.5ZM32.79 52.7L33.19 54.5L34.99 54.1L34.59 52.3L32.79 52.7ZM21.39 53.7C22.0567 53.8333 22.7233 53.9666 23.39 54.1L23.79 52.3L21.99 51.9L21.39 53.7ZM36.39 51.7L36.99 53.5L38.79 52.9L38.19 51.1L36.39 51.7ZM17.79 52.1C18.4567 52.3666 19.0567 52.6333 19.59 52.9L20.39 51.3L18.59 50.5L17.79 52.1ZM39.79 50.5L40.59 52.1L42.39 51.3L41.39 49.7L39.79 50.5ZM14.39 50.3C14.9233 50.5666 15.5233 50.9 16.19 51.3L16.99 49.7L15.39 48.7L14.39 50.3ZM42.99 48.7L43.99 50.1L45.59 49.1L44.39 47.5L42.99 48.7ZM11.39 47.7C11.79 48.2333 12.2567 48.7 12.79 49.1L13.99 47.5L12.59 46.3L11.39 47.7ZM8.78999 44.9C9.18999 45.4333 9.58999 45.9 9.98999 46.3L11.39 45.1L10.19 43.7L8.78999 44.9ZM8.18999 40.7L6.38999 41.7L7.58999 43.3L8.98999 42.3L8.18999 40.7ZM6.58999 37.5L4.78999 38.1L5.58999 39.9L7.18999 39.1L6.58999 37.5ZM53.59 38.1C53.8567 37.4333 54.0567 36.8333 54.19 36.3L52.39 35.7L51.79 37.3L53.59 38.1ZM5.38999 33.9L3.58999 34.3L4.18999 36.3L5.98999 35.7L5.38999 33.9ZM52.99 33.9L54.79 34.3L55.19 32.5L53.39 32.1L52.99 33.9ZM4.78999 30.3L2.98999 30.5L3.18999 32.5L5.18999 32.1L4.78999 30.3ZM55.39 28.5V28.3H53.59V30.3L55.39 30.5V28.5ZM4.78999 28.5C4.78999 27.9666 4.78999 27.3666 4.78999 26.7L2.98999 26.5V28.5H3.38999H4.78999ZM53.19 24.7C53.3233 25.3666 53.4567 25.9666 53.59 26.5H55.39L55.19 24.5L53.19 24.7ZM3.18999 24.7L4.98999 24.9L5.38999 23.0999L3.58999 22.7L3.18999 24.7ZM52.39 21.2999C52.6567 21.8333 52.8567 22.3666 52.99 22.9L54.79 22.5L54.19 20.7L52.39 21.2999ZM6.38999 19.7L4.78999 18.9L3.98999 20.9L5.78999 21.2999L6.38999 19.7ZM16.99 7.49995C17.5233 7.09995 18.0567 6.76662 18.59 6.49995L17.79 4.89995L15.99 5.69995L16.99 7.49995ZM20.19 5.89995C20.7233 5.63329 21.3233 5.43328 21.99 5.29995L21.39 3.49995L19.59 4.09995L20.19 5.89995ZM36.39 5.09995L36.79 3.29995L34.99 2.89995L34.59 4.69995L36.39 5.09995ZM23.79 4.69995C24.3233 4.56662 24.8567 4.49995 25.39 4.49995L25.19 2.49995L23.19 2.89995L23.79 4.69995ZM32.79 4.29995L32.99 2.49995L30.99 2.29995V4.09995L32.79 4.29995ZM27.39 4.09995C27.9233 4.09995 28.5233 4.09995 29.19 4.09995V2.29995H27.19L27.39 4.09995ZM56.59 51.3C55.79 51.0333 55.2567 50.7666 54.99 50.5C54.7233 50.2333 54.49 49.8 54.29 49.2C54.09 48.6 53.69 48.3 53.09 48.3C52.49 48.3 52.09 48.6 51.89 49.2C51.69 49.8 51.4567 50.2333 51.19 50.5C50.9233 50.7666 50.49 51 49.89 51.2C49.29 51.4 48.99 51.8 48.99 52.4C48.99 53 49.29 53.4 49.89 53.6C50.49 53.8 50.9233 54.0333 51.19 54.3C51.4567 54.5666 51.69 55.0333 51.89 55.7C52.09 56.3666 52.49 56.7 53.09 56.7C53.69 56.7 54.09 56.3666 54.29 55.7C54.49 55.0333 54.7233 54.5666 54.99 54.3C55.2567 54.0333 55.7233 53.8 56.39 53.6C57.0567 53.4 57.39 53 57.39 52.4C57.39 51.8 57.1233 51.4333 56.59 51.3ZM53.19 53.7C52.79 53.1666 52.39 52.7666 51.99 52.5C52.39 52.1 52.79 51.7 53.19 51.3C53.4567 51.7 53.8567 52.1 54.39 52.5C53.8567 52.7666 53.4567 53.1666 53.19 53.7Z" fill="#FD4766"/>
</svg>
